<svg width="56" height="37" viewBox="0 0 56 37" fill="none" xmlns="http://www.w3.org/2000/svg">
<path d="M15.736 0.789472C15.5587 0.922634 15.568 1.3031 15.736 1.26505C15.792 1.25554 15.8107 1.36968 15.792 1.54089C15.764 1.73112 15.7827 1.81672 15.848 1.76916C15.904 1.73112 15.9227 1.78819 15.8854 1.92135C15.8387 2.1306 15.876 2.1306 16.38 1.94988C16.4827 1.91184 16.4267 1.96891 16.2587 2.08305C16.1 2.18767 15.9694 2.33035 15.9787 2.39693C15.9974 2.46351 15.932 2.51107 15.848 2.49204C15.7454 2.47302 15.68 2.52058 15.68 2.61569C15.68 2.69179 15.7267 2.75837 15.7734 2.75837C15.82 2.75837 15.8574 2.7869 15.8574 2.82495C15.8294 3.01518 15.876 3.14834 15.9507 3.10078C15.9974 3.06274 16.016 3.13883 15.9787 3.25297C15.9507 3.3576 15.9694 3.43369 16.016 3.40515C16.0627 3.36711 16.1094 3.4432 16.1094 3.56685C16.1187 3.73806 16.0814 3.78562 15.9507 3.75708C15.82 3.72855 15.7547 3.79513 15.708 3.97585C15.6707 4.12803 15.6894 4.23266 15.7547 4.26119C15.82 4.28022 15.848 4.33729 15.8107 4.38484C15.7734 4.46094 15.9694 4.51801 16.1654 4.47996C16.2587 4.47045 16.3427 4.83189 16.3147 5.10772C16.3054 5.22186 16.2587 5.28844 16.2214 5.26942C16.1747 5.24089 16.1187 5.28844 16.0907 5.36454C16.0627 5.45014 15.988 5.48819 15.9227 5.45014C15.8667 5.42161 15.8574 5.43112 15.8947 5.47868C15.988 5.5833 17.3694 5.52623 17.5094 5.41209C17.5654 5.36454 17.64 5.35502 17.668 5.39307C17.7054 5.42161 17.7334 5.38356 17.7334 5.29796C17.7334 5.21235 17.7707 5.12675 17.8174 5.09821C17.864 5.06017 17.8827 5.12675 17.8547 5.23137C17.8174 5.37405 17.8547 5.42161 17.976 5.43112C18.1347 5.44063 18.1347 5.45014 17.9574 5.4977C17.7987 5.55477 17.78 5.61184 17.8454 5.85914C17.8827 6.02083 18.0134 6.20155 18.1254 6.25862C18.2467 6.31569 18.284 6.36325 18.228 6.36325C18.0414 6.37276 17.7334 6.01132 17.7334 5.79256C17.7334 5.59281 17.7054 5.59281 16.9214 5.65939C16.464 5.69744 16.0534 5.76402 15.9974 5.81158C15.9414 5.85914 15.8667 5.86865 15.8387 5.8306C15.8014 5.80207 15.7734 5.86865 15.7734 5.98279C15.7734 6.16351 15.8014 6.17302 15.9694 6.0779C16.2774 5.91621 17.4347 5.9067 17.5654 6.06839C17.7427 6.28716 17.7334 6.45837 17.5187 6.52495C17.388 6.56299 17.2854 6.53446 17.2014 6.41081C17.0894 6.25862 17.0614 6.24911 16.9867 6.37276C16.94 6.44885 16.8934 6.57251 16.8934 6.63909C16.8934 6.70567 16.856 6.7342 16.8 6.70567C16.7534 6.67713 16.7067 6.69616 16.7067 6.75323C16.7067 6.81029 16.66 6.82932 16.5947 6.79127C16.5387 6.75323 16.52 6.76274 16.548 6.81981C16.6507 6.9815 16.3054 7.3905 16.1 7.35245C15.6054 7.24783 15.3534 7.27636 15.3627 7.43806C15.372 7.53317 15.344 7.59024 15.3067 7.56171C15.176 7.4761 14.952 7.61878 14.9054 7.7995C14.8774 7.90412 14.9054 7.99924 14.9707 8.02778C15.0267 8.05631 14.8867 8.05631 14.6627 8.02778C14.3734 7.98973 14.28 7.99924 14.3174 8.07533C14.3547 8.1324 14.3454 8.17996 14.2894 8.17996C14.2334 8.17996 14.1494 8.09436 14.0934 7.98973C13.9627 7.74243 13.72 7.74243 13.72 7.99924C13.72 8.12289 13.7574 8.17045 13.8414 8.1324C13.8974 8.09436 13.8694 8.1324 13.776 8.21801C13.6827 8.2941 13.5614 8.34166 13.5147 8.31312C13.468 8.28459 13.328 8.24654 13.2067 8.22752C12.9547 8.2085 12.572 8.55091 12.6187 8.76017C12.6374 8.83626 12.5814 8.88382 12.4974 8.86479C12.4134 8.85528 12.2827 8.92186 12.2174 9.00747C12.096 9.16916 12.096 9.16916 12.2734 9.036C12.432 8.92186 12.4414 8.92186 12.3387 9.036C12.2734 9.11209 12.152 9.17867 12.0587 9.17867C11.9747 9.17867 11.9094 9.22623 11.9187 9.27379C11.928 9.33086 11.8254 9.37842 11.6854 9.36891C11.5267 9.36891 11.4334 9.41646 11.4334 9.51158C11.4334 9.6067 11.3587 9.64474 11.2094 9.62572C11.0694 9.6067 11.0134 9.62572 11.0507 9.6923C11.088 9.74937 11.0694 9.80644 11.0227 9.80644C10.9667 9.81595 10.864 9.82546 10.808 9.83497C10.7427 9.84448 10.612 9.78742 10.5094 9.71132C10.416 9.62572 10.3134 9.55914 10.276 9.55914C10.248 9.55914 10.2294 9.5306 10.2387 9.50207C10.248 9.46402 10.1734 9.35939 10.0707 9.26428C9.92136 9.13112 9.88402 9.12161 9.91202 9.22623C9.93069 9.30233 9.89336 9.35939 9.82802 9.34988C9.77202 9.34037 9.73469 9.39744 9.75336 9.49256C9.76269 9.57816 9.73469 9.70181 9.68802 9.76839C9.64136 9.83497 9.62269 9.93009 9.66002 9.98716C9.68802 10.0347 9.65069 10.1108 9.57602 10.1393C9.49202 10.1679 9.45469 10.2345 9.48269 10.282C9.51069 10.3296 9.45469 10.3391 9.37069 10.301C9.26802 10.263 9.23069 10.282 9.26802 10.3391C9.30536 10.3962 9.24936 10.4247 9.11869 10.3962C8.88536 10.3581 7.87736 10.8812 7.90536 11.0239C7.92402 11.081 7.85869 11.0905 7.77469 11.062C7.68136 11.0239 7.64402 11.0429 7.68136 11.1C7.72802 11.1666 7.68136 11.1856 7.56936 11.1571C7.47602 11.1285 7.36402 11.1666 7.32669 11.2332C7.28002 11.3093 7.28936 11.3283 7.35469 11.2807C7.42002 11.2427 7.46669 11.2332 7.46669 11.2617C7.46669 11.2902 7.33602 11.3854 7.17736 11.471C6.96269 11.5756 6.90669 11.5851 6.95336 11.49C6.98136 11.4234 6.95336 11.4424 6.87869 11.528C6.80402 11.6231 6.72002 11.6707 6.69202 11.6327C6.65469 11.6041 6.62669 11.6327 6.62669 11.6992C6.62669 11.7658 6.59869 11.8039 6.57069 11.7658C6.54269 11.7373 6.39336 11.8609 6.23469 12.0321C6.05736 12.2509 5.90802 12.3365 5.81469 12.2985C5.70269 12.2509 5.67469 12.2794 5.72136 12.3936C5.75869 12.4982 5.74002 12.5267 5.65602 12.4982C5.58136 12.4697 5.49736 12.4982 5.45069 12.5648C5.40402 12.6409 5.42269 12.6599 5.50669 12.6028C5.60002 12.5458 5.60936 12.5648 5.54402 12.6599C5.49736 12.736 5.46002 12.9167 5.46002 13.0689C5.46002 13.3352 5.45069 13.3447 4.91869 13.3638C4.44269 13.3733 4.34002 13.4208 4.05069 13.7062C3.86402 13.8964 3.64936 14.0201 3.54669 14.001C3.37869 13.9725 2.80002 14.2198 2.80002 14.3244C2.80002 14.353 2.84669 14.3435 2.91202 14.3054C2.97736 14.2674 2.98669 14.2769 2.94936 14.3435C2.91202 14.4005 2.81869 14.4195 2.72536 14.391C2.64136 14.3625 2.59469 14.372 2.63202 14.41C2.72536 14.5052 2.36136 14.7715 2.24936 14.6954C2.20269 14.6668 2.13736 14.6859 2.10002 14.7429C2.06269 14.8 1.99736 14.819 1.95069 14.7905C1.90402 14.7525 1.86669 14.8 1.86669 14.8856C1.86669 14.9712 1.82936 15.0093 1.77336 14.9807C1.72669 14.9522 1.70802 14.9807 1.72669 15.0473C1.75469 15.1234 1.59602 15.3422 1.38136 15.5514L0.980022 15.9319L1.35336 15.5039L1.72669 15.0854L1.20402 15.5514C0.858689 15.8653 0.672022 16.1031 0.662689 16.2553C0.653356 16.417 0.690689 16.4645 0.802689 16.417C0.886689 16.3884 0.914689 16.398 0.877356 16.4645C0.840022 16.5311 0.896022 16.5501 1.02669 16.5311C1.19469 16.5121 1.25069 16.5501 1.26002 16.7213C1.26936 16.845 1.23202 16.9686 1.18536 16.9972C1.12936 17.0352 1.12002 17.0067 1.16669 16.9306C1.21336 16.845 1.20402 16.826 1.13869 16.8735C1.07336 16.9116 1.02669 17.0352 1.02669 17.1399C1.02669 17.254 1.05469 17.3206 1.08269 17.2825C1.11069 17.254 1.31602 17.2825 1.54002 17.3586C1.76402 17.4252 1.96936 17.4537 1.99736 17.4252C2.03469 17.3967 2.05336 17.4347 2.05336 17.5013C2.05336 17.5679 2.08136 17.5964 2.11869 17.5679C2.14669 17.5298 2.24002 17.5584 2.31469 17.6249C2.43602 17.7201 2.44536 17.7106 2.38002 17.5964C2.32402 17.4918 2.35202 17.5013 2.49202 17.6249C2.75336 17.8627 3.12669 17.8342 3.34136 17.5489C3.44402 17.4252 3.54669 17.3491 3.58402 17.3776C3.61202 17.4062 3.64002 17.3776 3.64002 17.3111C3.64002 17.2445 3.66802 17.2159 3.70536 17.2445C3.73336 17.2825 3.81736 17.235 3.89202 17.1399C3.96669 17.0543 3.99469 17.0352 3.95736 17.1113C3.90136 17.2159 3.92936 17.2255 4.06936 17.1589C4.23736 17.0828 5.28269 17.0543 6.48669 17.1113C6.96269 17.1303 7.01869 17.1589 7.15869 17.4347C7.24269 17.6059 7.64402 18.0815 8.06402 18.5C8.47469 18.9185 8.71736 19.1753 8.59602 19.0707L8.37202 18.8805L8.54936 19.1658C8.64269 19.318 8.85736 19.5653 9.00669 19.708L9.28669 19.9648L30.6974 19.9743H52.108L51.8747 19.7555C51.6414 19.5368 51.6414 19.5273 51.8187 19.4131C51.9307 19.3465 51.9774 19.337 51.94 19.3941C51.912 19.4512 51.9214 19.4987 51.9774 19.4987C52.08 19.4987 52.2667 18.909 52.2667 18.5856C52.2667 18.4715 52.332 18.3288 52.4067 18.2622C52.528 18.1671 52.528 18.1005 52.4067 17.8057C52.332 17.5964 52.3227 17.5298 52.388 17.6249C52.7054 18.1195 52.7054 18.1195 52.864 17.9864C53.0507 17.8247 53.06 17.5584 52.8734 17.6249C52.7427 17.682 52.612 17.5584 52.584 17.3491C52.5747 17.292 52.6494 17.1494 52.752 17.0162C52.8547 16.8926 52.9107 16.8355 52.8827 16.8926C52.8547 16.9591 52.9107 17.0257 53.0227 17.0543C53.1907 17.1018 53.1907 17.0828 53.088 16.9496C53.004 16.8355 53.0414 16.845 53.1814 16.9686C53.4147 17.1779 53.5454 17.2159 54.04 17.254C54.2454 17.273 54.4134 17.2255 54.5067 17.1208C54.5814 17.0352 54.628 17.0162 54.6 17.0733C54.572 17.1303 54.6654 17.0447 54.8054 16.883C55.0667 16.5977 55.1507 16.2648 54.964 16.2648C54.9174 16.2648 54.8987 16.3124 54.936 16.3694C54.964 16.4265 54.8707 16.4075 54.7214 16.3219C54.572 16.2458 54.4414 16.1126 54.4414 16.0365C54.4414 15.9604 54.4787 15.9129 54.516 15.9414C54.5534 15.9604 54.6187 15.9319 54.656 15.8748C54.684 15.8177 54.656 15.7321 54.5907 15.6846C54.516 15.6465 54.4414 15.6465 54.404 15.7036C54.3667 15.7702 54.32 15.7417 54.292 15.6465C54.2547 15.5609 54.264 15.5229 54.32 15.5514C54.376 15.58 54.4134 15.5609 54.4134 15.5134C54.4134 15.3422 53.8907 15.3992 53.7507 15.5704C53.6294 15.7321 53.6294 15.7321 53.8067 15.599C53.9747 15.4658 53.984 15.4753 53.8814 15.6085C53.76 15.7607 53.4427 15.7892 53.3214 15.6465C53.2747 15.6085 53.3027 15.599 53.3774 15.6465C53.4707 15.7036 53.4894 15.6846 53.4427 15.6085C53.396 15.5419 53.312 15.5134 53.2467 15.5419C53.1814 15.5609 53.032 15.4753 52.9107 15.3327L52.6867 15.0758L52.9667 15.3136L53.2467 15.5514L53.0227 15.2851C52.7614 14.9902 52.5 14.9522 52.2574 15.1805C52.0614 15.3612 51.6134 15.2946 51.3894 15.0378C51.2774 14.9142 51.128 14.8666 50.8854 14.8951C50.6987 14.9046 50.148 14.9427 49.672 14.9712C49.196 14.9998 48.7574 15.0473 48.7014 15.0854C48.636 15.1234 48.6267 15.1139 48.664 15.0473C48.748 14.8951 48.692 14.9046 48.3 15.0758C48.1134 15.1519 47.9827 15.2661 47.992 15.3327C48.0107 15.4088 47.9454 15.4468 47.824 15.4278C47.5907 15.3992 47.4507 15.5514 47.3947 15.9319C47.3667 16.0841 47.3107 16.3028 47.2734 16.398C47.2174 16.5311 47.2267 16.5597 47.3014 16.5121C47.4694 16.4075 47.432 16.5121 47.2547 16.6548C47.152 16.7499 47.124 16.7499 47.1707 16.6643C47.264 16.5121 47.18 16.5216 46.7974 16.7023C46.4987 16.845 46.4427 16.845 46.06 16.6928C45.8267 16.6072 45.5747 16.474 45.5094 16.398C45.3507 16.2363 45.2294 16.2172 45.3227 16.3694C45.472 16.6167 44.9774 16.2363 44.744 15.9224C44.548 15.6656 44.52 15.5609 44.604 15.4753C44.6974 15.3897 44.7067 15.3992 44.66 15.5134C44.6227 15.6085 44.6507 15.7036 44.716 15.7512C44.7907 15.7987 44.8094 15.7797 44.7627 15.7036C44.716 15.6275 44.7627 15.5704 44.8934 15.5324C45.0147 15.4944 45.0707 15.4278 45.0427 15.3422C45.0147 15.2661 44.9867 15.171 44.9867 15.1329C44.9867 15.0949 44.8374 15.0568 44.66 15.0473C44.3894 15.0283 44.3147 15.0663 44.2494 15.2375C44.1934 15.3802 44.2027 15.5039 44.2774 15.5895C44.3614 15.7036 44.352 15.7131 44.2494 15.6465C44.1467 15.5895 44.128 15.6085 44.1747 15.7131C44.2307 15.8748 43.9787 16.1697 43.7827 16.1697C43.7174 16.1697 43.6987 16.2172 43.736 16.2838C43.7827 16.3504 43.7547 16.3694 43.6614 16.3314C43.456 16.2553 43.3907 16.3504 43.5027 16.5787C43.5587 16.6738 43.568 16.7404 43.5214 16.7118C43.4747 16.6833 43.3627 16.8165 43.2787 17.0067L43.1294 17.3586L43.3067 17.1303C43.6054 16.7689 43.5214 17.0162 43.2134 17.4062C43.008 17.6725 42.8774 17.7581 42.7467 17.7201C42.644 17.6915 42.4854 17.7296 42.4014 17.7962C42.2707 17.9103 42.252 17.9103 42.3267 17.7866C42.3734 17.701 42.3267 17.7106 42.2054 17.8247C42.0934 17.9293 41.972 17.9769 41.9347 17.9483C41.9067 17.9103 41.7667 17.9483 41.6454 18.0339C41.5147 18.1195 41.2627 18.2147 41.076 18.2337C40.8894 18.2622 40.7027 18.3193 40.6467 18.3573C40.6 18.3954 40.432 18.4525 40.292 18.4715C40.068 18.519 39.9747 18.462 39.6947 18.1195C39.508 17.8913 39.312 17.7296 39.256 17.7486C39.2 17.7676 39.004 17.6249 38.8267 17.4347L38.5 17.0733L38.836 17.3586C39.0134 17.5108 38.892 17.3776 38.556 17.0543C38.22 16.7404 37.688 16.1982 37.38 15.8653C37.072 15.5324 36.904 15.3707 37.0067 15.5039L37.1934 15.7417L36.932 15.5039C36.792 15.3802 36.6987 15.2185 36.7174 15.1519C36.7454 15.0949 36.652 14.9427 36.512 14.8381C36.372 14.7239 36.3254 14.6573 36.4 14.6954C36.4747 14.7334 36.4374 14.6668 36.3067 14.5527C36.176 14.4386 36.1387 14.372 36.2134 14.41C36.288 14.4481 36.2507 14.3815 36.12 14.2674C35.9894 14.1532 35.9334 14.0866 35.9987 14.1152C36.0547 14.1437 35.868 13.7442 35.588 13.2211C35.308 12.698 35.0374 12.2699 34.9814 12.2699C34.9347 12.2699 34.9254 12.2224 34.9534 12.1748C34.9814 12.1177 34.9627 12.0797 34.9067 12.0797C34.8507 12.0797 34.832 12.0321 34.86 11.9846C34.888 11.9275 34.8694 11.8895 34.804 11.8895C34.7387 11.8895 34.72 11.8609 34.748 11.8229C34.7854 11.7944 34.7387 11.7088 34.6454 11.6327C34.5614 11.5566 34.5427 11.5185 34.608 11.5566C34.748 11.6327 34.748 11.5851 34.608 11.2712C34.552 11.1381 34.468 11.0334 34.4214 11.0334C34.3747 11.0334 34.3654 11.0905 34.4027 11.1476C34.4587 11.2427 34.4307 11.2332 34.328 11.1476C34.2347 11.0715 34.1974 10.9573 34.2254 10.8717C34.2627 10.7766 34.244 10.7386 34.188 10.7766C34.1227 10.8242 34.104 10.7766 34.132 10.6625C34.16 10.5483 34.104 10.4342 33.9827 10.3486C33.8707 10.2725 33.8147 10.1774 33.852 10.1489C33.88 10.1108 33.852 10.0823 33.7867 10.0823C33.7214 10.0823 33.6934 10.0537 33.7214 10.0157C33.7587 9.98716 33.7214 9.91107 33.6467 9.854C33.488 9.73986 33.3667 9.2833 33.516 9.36891C33.5627 9.40695 33.6 9.37842 33.6 9.32135C33.6 9.26428 33.488 9.22623 33.348 9.24526C33.1614 9.26428 33.0774 9.33086 33.0587 9.49256C33.0214 9.74937 33.1987 10.0157 33.348 9.92058C33.3947 9.89204 33.4134 9.91107 33.3854 9.96814C33.292 10.1013 33.4134 10.3771 33.5254 10.3106C33.5814 10.2725 33.6 10.301 33.5814 10.3771C33.5534 10.4532 33.6187 10.6149 33.7307 10.7386C33.8427 10.8717 33.8707 10.9383 33.7867 10.9003C33.7027 10.8527 33.712 10.8812 33.8054 10.9668C33.8987 11.0429 33.9454 11.1285 33.908 11.1571C33.88 11.1951 33.8987 11.2237 33.964 11.2237C34.0294 11.2237 34.048 11.2617 34.02 11.3188C33.992 11.3663 34.0107 11.4139 34.0574 11.4139C34.1134 11.4139 34.1507 11.4424 34.1414 11.4805C34.132 11.528 34.1974 11.6992 34.2814 11.8609C34.3747 12.0321 34.4027 12.1748 34.356 12.1748C34.3 12.1748 34.216 12.0892 34.16 11.9751C34.0947 11.8609 33.9734 11.7848 33.852 11.7944C33.74 11.8039 33.6187 11.8039 33.5814 11.7944C33.432 11.7468 33.3107 11.7183 33.1707 11.7088C33.096 11.7088 33.0587 11.6517 33.0867 11.5946C33.124 11.5471 33.1614 11.3949 33.18 11.2617C33.1987 11.0905 33.152 11.0334 33.0214 11.0334C32.9187 11.0334 32.8627 11.0715 32.8907 11.1095C32.9094 11.1476 32.788 11.1666 32.6107 11.1476C32.4334 11.1285 32.2934 11.1476 32.2934 11.2046C32.2934 11.2522 32.1907 11.2712 32.06 11.2427C31.8734 11.2142 31.8454 11.1761 31.9294 11.0715C31.9854 10.9954 32.0974 10.9383 32.172 10.9383C32.3494 10.9383 32.2934 10.653 32.088 10.5198C31.9574 10.4437 31.892 10.4532 31.7614 10.6054C31.6027 10.7766 31.6027 10.7766 31.78 10.6435C31.9574 10.5198 31.9574 10.5198 31.836 10.6815C31.7054 10.8432 31.696 10.8432 31.5094 10.653C31.332 10.4722 31.3227 10.4437 31.472 10.3581C31.5654 10.3106 31.612 10.2059 31.584 10.1298C31.5094 9.94911 31.1267 10.0157 30.856 10.244C30.716 10.3676 30.6974 10.3771 30.7814 10.263C30.884 10.1203 30.8654 10.1203 30.4734 10.244C30.24 10.3296 30.0814 10.4247 30.1094 10.4722C30.1374 10.5198 30.0814 10.5293 29.9974 10.4913C29.8854 10.4532 29.8574 10.4627 29.904 10.5483C29.96 10.6339 29.932 10.6339 29.7827 10.5388C29.6707 10.4722 29.5867 10.3962 29.5867 10.3581C29.5867 10.2249 29.988 9.89204 30.1467 9.89204C30.268 9.89204 30.3054 9.84448 30.2774 9.75888C30.24 9.67328 30.3334 9.56865 30.5107 9.46402C30.8747 9.27379 30.9027 8.94089 30.5667 8.7887C30.352 8.68407 30.3427 8.68407 30.436 8.88382C30.5294 9.07405 30.5294 9.07405 30.3894 8.90284C30.3054 8.79821 30.268 8.63652 30.296 8.5414C30.3427 8.38921 30.3147 8.37019 30.0814 8.42726C29.9414 8.46531 29.7454 8.53189 29.6614 8.56993C29.428 8.69358 29.4 8.67456 29.4 8.38921C29.4 8.01826 29.5027 7.69487 29.596 7.76145C29.6427 7.78999 29.68 7.76145 29.68 7.70438C29.68 7.64731 29.7267 7.62829 29.7734 7.65682C29.8294 7.68536 29.8667 7.67585 29.8667 7.62829C29.8667 7.58073 29.96 7.5522 30.0814 7.56171C30.1934 7.57122 30.2867 7.59024 30.2867 7.60927C30.2867 7.61878 30.38 7.6378 30.5014 7.64731C30.6787 7.66634 30.7067 7.62829 30.7067 7.36197C30.7067 7.19076 30.6507 7.03857 30.5947 7.01004C30.436 6.96248 30.044 7.1432 30.1094 7.23832C30.1374 7.28587 30.0907 7.29538 30.016 7.26685C29.7547 7.16222 29.232 7.42855 28.728 7.92315C28.4574 8.19898 28.3547 8.31312 28.5134 8.17996C28.7187 8.00875 28.7 8.0468 28.42 8.35117C28.0747 8.73163 27.8507 8.91235 28.0934 8.60798C28.2427 8.42726 28.1027 8.42726 27.8694 8.60798C27.7107 8.73163 27.664 8.73163 27.5147 8.58896C27.3094 8.39873 27.4494 8.17045 27.72 8.24654C27.8507 8.28459 27.9067 8.24654 27.9067 8.15143C27.9067 8.07533 27.9347 7.93266 27.972 7.83754C28.0187 7.71389 28 7.69487 27.9067 7.75194C27.8227 7.7995 27.804 7.78999 27.8507 7.71389C27.888 7.65682 27.9627 7.62829 28.0094 7.65682C28.056 7.69487 28.0934 7.67585 28.0934 7.62829C28.0934 7.57122 28.168 7.5522 28.2707 7.58073C28.4854 7.6378 28.9427 7.17173 28.8587 6.96248C28.8214 6.85785 28.84 6.83883 28.9334 6.8959C29.0267 6.95297 29.0454 6.92443 29.008 6.77225C28.9707 6.6486 28.9894 6.58202 29.064 6.59153C29.12 6.60104 29.176 6.49641 29.1947 6.35374C29.2227 6.14448 29.148 6.04937 28.7934 5.80207C28.2614 5.42161 27.776 5.37405 27.7387 5.67842C27.72 5.79256 27.7947 6.05888 27.9067 6.27765C28.0187 6.49641 28.056 6.6486 28 6.61055C27.8787 6.53446 27.412 6.46788 27.4774 6.54397C27.5054 6.56299 27.4867 6.67713 27.4307 6.78176C27.356 6.92443 27.356 6.95297 27.44 6.8959C27.6174 6.78176 27.3934 7.17173 27.188 7.33343C27.048 7.43806 27.048 7.41903 27.2067 7.2288L27.3934 6.99101L27.1787 7.17173C27.0667 7.27636 26.9827 7.40952 27.0107 7.4761C27.0387 7.56171 27.0014 7.58073 26.8987 7.54269C26.768 7.48562 26.7587 7.50464 26.852 7.62829C27.0014 7.80901 26.8987 7.93266 26.7214 7.78047C26.6187 7.69487 26.6187 7.64731 26.74 7.51415C26.8147 7.42855 26.88 7.17173 26.88 6.93394C26.8894 6.31569 26.8614 6.18253 26.7214 6.18253C26.5347 6.18253 25.8067 5.37405 25.7787 5.11724C25.76 4.99359 25.6574 4.81287 25.5454 4.70824L25.3494 4.51801L25.5267 4.7558L25.7134 4.99359L25.5174 4.82238C25.3867 4.71775 25.3307 4.58459 25.3587 4.46094C25.396 4.32778 25.3587 4.28022 25.228 4.28022C25.0507 4.28022 24.8267 4.62263 24.8267 4.89847C24.8267 4.97456 24.7707 5.04114 24.7147 5.04114C24.64 5.04114 24.6774 5.11724 24.78 5.20284L24.9667 5.35502L24.78 5.27893C24.6774 5.24089 24.528 5.20284 24.444 5.19333C24.3507 5.19333 24.304 5.13626 24.3414 5.05065C24.3694 4.97456 24.3507 4.93652 24.304 4.96505C24.2574 5.0031 24.2294 4.83189 24.2387 4.5941C24.248 4.26119 24.22 4.1851 24.108 4.22315C24.0334 4.25168 23.9494 4.28022 23.9307 4.28022C23.912 4.28022 23.8934 4.32778 23.8934 4.38484C23.8934 4.4324 23.9494 4.45143 24.0147 4.41338C24.0987 4.35631 24.0987 4.36582 24.0147 4.48947C23.9494 4.56556 23.9307 4.67019 23.968 4.70824C24.0054 4.7558 23.9774 4.7558 23.9214 4.71775C23.828 4.67019 23.8 4.74628 23.8 4.99359C23.8 5.18382 23.8374 5.31698 23.884 5.28844C23.9867 5.22186 23.9587 5.48819 23.8467 5.5833C23.8094 5.62135 23.8 5.60233 23.8374 5.53574C23.8747 5.46916 23.856 5.42161 23.772 5.42161C23.6787 5.42161 23.6507 5.27893 23.66 4.88896C23.6787 4.40387 23.66 4.35631 23.436 4.27071C23.3054 4.22315 23.1 4.13754 22.988 4.07096C22.876 4.01389 22.6987 3.99487 22.596 4.02341C22.484 4.05194 22.372 4.02341 22.3347 3.97585C22.2974 3.90927 22.3254 3.89975 22.4 3.94731C22.484 3.99487 22.5027 3.98536 22.456 3.91878C22.372 3.7761 21.9334 3.76659 21.9334 3.89975C21.9334 3.95682 21.8307 3.92829 21.7 3.84269C21.5694 3.75708 21.4667 3.63343 21.4667 3.56685C21.4667 3.50027 21.4014 3.41466 21.3174 3.38613C21.1774 3.32906 21.1774 3.34808 21.2894 3.48125C21.4107 3.63343 21.4014 3.63343 21.2147 3.51929C21.1027 3.4432 21.028 3.3576 21.0467 3.32906C21.0654 3.30053 20.916 3.26248 20.72 3.25297C20.524 3.23395 20.3374 3.27199 20.3 3.32906C20.272 3.37662 20.1414 3.39564 20.0107 3.36711C19.824 3.31955 19.7867 3.34808 19.7867 3.50978C19.7867 3.62392 19.7307 3.70952 19.6467 3.70952C19.572 3.70952 19.5067 3.75708 19.5067 3.81415C19.5067 3.86171 19.5627 3.88073 19.628 3.84269C19.7027 3.78562 19.7027 3.81415 19.6094 3.92829C19.5347 4.02341 19.5067 4.1851 19.544 4.31826C19.572 4.45143 19.5627 4.58459 19.5067 4.61312C19.4507 4.64166 19.4414 4.60361 19.4694 4.51801C19.5067 4.42289 19.488 4.37533 19.4134 4.39436C19.348 4.41338 19.2734 4.35631 19.2547 4.28022C19.2174 4.15657 19.2267 4.15657 19.3107 4.28022C19.3947 4.39436 19.4134 4.36582 19.4134 4.15657C19.4134 4.00438 19.376 3.90927 19.32 3.94731C19.2734 3.97585 19.2547 3.94731 19.2827 3.87122C19.3107 3.79513 19.1987 3.62392 19.0214 3.47173C18.5547 3.08176 18.508 2.9486 18.76 2.75837C18.9654 2.59667 19.1054 2.1306 18.9187 2.25425C18.8627 2.2923 18.844 2.25425 18.8814 2.15914C18.9094 2.07353 18.8907 1.97842 18.8347 1.94037C18.7694 1.89281 18.76 1.92135 18.7974 2.00695C18.8347 2.08305 18.7787 2.03549 18.6667 1.90233C18.5547 1.76916 18.4894 1.72161 18.5267 1.77868C18.564 1.86428 18.536 1.8833 18.4427 1.84526C18.3587 1.81672 18.3214 1.75014 18.3494 1.70258C18.3774 1.65502 18.3494 1.61698 18.2934 1.61698C18.2374 1.61698 18.2094 1.81672 18.2187 2.14011C18.2374 2.54911 18.2 2.7013 18.0694 2.82495C17.9667 2.92957 17.9294 2.93909 17.9667 2.86299C18.0227 2.75837 18.004 2.73934 17.8827 2.7869C17.752 2.83446 17.7427 2.81544 17.8267 2.66325C17.9574 2.41595 17.948 2.3779 17.752 2.3779C17.444 2.3779 17.0427 1.94988 17.0427 1.59796C17.0334 1.36968 16.996 1.28407 16.8747 1.29359C16.7907 1.3031 16.604 1.16993 16.4547 1.00824L16.1934 0.71338L16.52 0.998727L16.8467 1.28407L16.5854 0.989215C16.3147 0.684845 16.212 0.646799 15.9694 0.798984C15.876 0.856053 15.8574 0.846542 15.904 0.779961C15.988 0.627776 15.9414 0.637287 15.736 0.789472ZM34.6734 12.6504C34.7387 12.6504 34.832 12.736 34.86 12.8406C34.8974 12.9453 34.9627 13.0118 35.0094 12.9738C35.056 12.9453 35.0934 12.9548 35.084 13.0023C35.056 13.183 35.1027 13.3257 35.1774 13.2782C35.2707 13.2116 35.4014 13.4874 35.3267 13.6016C35.2987 13.6491 35.3267 13.7157 35.3827 13.7537C35.4574 13.8013 35.4667 13.7823 35.42 13.6967C35.364 13.6111 35.3827 13.592 35.4574 13.6396C35.5227 13.6872 35.5507 13.7728 35.5227 13.8489C35.4947 13.9249 35.5134 13.982 35.5694 13.982C35.6254 13.982 35.6347 14.0201 35.6067 14.0771C35.5787 14.1247 35.5974 14.1722 35.6534 14.1722C35.7094 14.1722 35.728 14.2103 35.7 14.2674C35.672 14.3149 35.6907 14.3625 35.756 14.3625C35.8214 14.3625 35.84 14.391 35.812 14.4291C35.7747 14.4576 35.8214 14.5432 35.9147 14.6193C35.9987 14.6954 36.0174 14.7239 35.952 14.6954C35.8494 14.6383 35.84 14.6668 35.924 14.8C36.0547 15.0378 36.4374 15.5039 36.344 15.3136C36.2974 15.2185 36.344 15.228 36.4747 15.3517C36.5867 15.4468 36.652 15.5704 36.624 15.6085C36.596 15.6561 36.624 15.6941 36.6894 15.6941C36.7547 15.6941 36.7827 15.7131 36.7547 15.7417C36.68 15.8177 38.08 17.3111 38.22 17.3111C38.332 17.3111 40.04 18.9661 40.04 19.0707C40.04 19.0897 39.928 19.0707 39.7974 19.0231C39.5174 18.909 39.172 18.8995 39.2374 19.0041C39.256 19.0422 39.1067 19.0612 38.9014 19.0422C38.64 19.0136 38.5374 19.0327 38.584 19.1088C38.6214 19.1658 38.5934 19.2134 38.5187 19.2134C38.3507 19.2134 38.2574 19.0041 38.36 18.8329C38.4627 18.6617 38.3694 18.4525 38.192 18.4525C38.1174 18.4525 37.912 18.3478 37.744 18.2147C37.576 18.0815 37.3894 17.9769 37.324 17.9769C37.1 17.9769 36.4 17.6725 36.4 17.5774C36.4 17.5203 36.3347 17.5108 36.2507 17.5393C36.176 17.5679 36.1387 17.5584 36.1667 17.5013C36.1947 17.4442 36.1387 17.4062 36.0267 17.4062C35.9147 17.4062 35.8494 17.4442 35.8774 17.4823C35.896 17.5203 35.7374 17.5584 35.5134 17.5584C35.2054 17.5679 35.056 17.5203 34.9347 17.3776C34.8414 17.273 34.8227 17.2159 34.888 17.254C34.944 17.292 35 17.2825 35 17.235C35 17.1779 34.9347 17.1208 34.86 17.0828C34.7854 17.0543 34.6734 16.9211 34.608 16.7879C34.552 16.6548 34.4587 16.5597 34.4027 16.5787C34.2907 16.6262 34.2907 16.6833 34.3934 16.9496C34.44 17.0638 34.412 17.1208 34.3374 17.1208C34.0667 17.1208 33.9734 16.9496 33.8987 16.3789C33.824 15.8463 33.8334 15.7702 34.0107 15.6275C34.1974 15.4658 34.1974 15.4658 34.076 15.618C33.9267 15.8273 34.0854 15.8463 34.2534 15.6465C34.3187 15.5704 34.4307 15.5039 34.5054 15.5039C34.6734 15.5039 35.028 15.0568 35.0467 14.8285C35.056 14.7334 35.028 14.6764 34.9814 14.7049C34.916 14.7429 34.8694 14.5147 34.9254 14.4291C34.9347 14.4195 34.888 14.3054 34.8227 14.1818C34.748 14.0486 34.7387 13.982 34.804 14.0201C34.86 14.0581 34.9067 14.0391 34.9067 13.9915C34.9067 13.9345 34.86 13.8869 34.804 13.8869C34.7387 13.8869 34.7107 13.7728 34.7387 13.6016C34.7667 13.4018 34.7387 13.3162 34.6547 13.3162C34.58 13.3162 34.552 13.3543 34.58 13.4113C34.6734 13.5635 34.5707 13.5159 34.4307 13.3447C34.3374 13.2401 34.3374 13.2116 34.4214 13.2591C34.496 13.3067 34.5334 13.2591 34.5334 13.1355C34.5334 13.0213 34.468 12.9357 34.3934 12.9357C34.244 12.9357 34.216 12.774 34.3094 12.5077C34.3654 12.3555 34.384 12.3555 34.4587 12.4982C34.5054 12.5838 34.5987 12.6504 34.6734 12.6504Z" fill="#0000FF"/>
<path d="M9.19721 19.8682C9.39321 20.0775 9.58921 20.2487 9.60788 20.2487C9.63588 20.2487 9.71988 20.3248 9.80388 20.4199C9.87855 20.515 9.90655 20.5245 9.86921 20.4484C9.82255 20.3723 9.97188 20.4484 10.1865 20.6196C10.4012 20.8004 10.5785 21.0001 10.5785 21.0667C10.5785 21.1428 10.7185 21.2284 10.9145 21.2664C11.1945 21.314 11.2879 21.2854 11.5025 21.0762C11.6425 20.943 11.8479 20.8289 11.9599 20.8289C12.0812 20.8289 12.1932 20.7718 12.2212 20.6957C12.2492 20.6101 12.3332 20.5816 12.4172 20.6101C12.5105 20.6482 12.5479 20.6291 12.5105 20.5816C12.4732 20.515 12.5665 20.496 12.7439 20.5245C12.9679 20.5626 13.0145 20.5435 12.9679 20.4389C12.9305 20.3628 12.9585 20.3818 13.0332 20.4675C13.1079 20.5626 13.1919 20.6006 13.2292 20.5626C13.2665 20.5245 13.2852 20.5626 13.2665 20.6387C13.2572 20.7148 13.3319 20.8194 13.4532 20.8764C13.5745 20.924 13.6865 21.0667 13.7239 21.1808C13.7705 21.3806 13.8732 21.4376 14.1905 21.4281C14.2465 21.4281 14.2745 21.4757 14.2559 21.5423C14.2279 21.6088 14.2559 21.6944 14.3212 21.742C14.3959 21.7896 14.4145 21.7705 14.3585 21.6754C14.3119 21.5993 14.3212 21.5708 14.3679 21.6184C14.4145 21.6659 14.4519 21.7325 14.4519 21.761C14.4705 21.9798 14.6199 22.2461 14.6945 22.2081C14.8065 22.132 14.9652 22.5695 14.9652 22.9309C14.9652 23.0926 15.0305 23.3399 15.1052 23.5016C15.3012 23.8726 15.4132 25.5561 15.3105 26.3171C15.2265 26.8973 15.2172 26.9163 14.9559 26.9163C14.7132 26.9163 14.6852 26.9448 14.6852 27.2682C14.6759 27.7438 14.6759 29.2181 14.6852 29.3417C14.6852 29.3893 14.6105 29.7317 14.5079 30.1027C14.3959 30.5402 14.2839 30.778 14.1812 30.797C14.0972 30.816 14.0319 30.9112 14.0319 30.9968C14.0319 31.1775 13.7052 31.2916 13.2292 31.2916C13.0705 31.2916 13.0052 31.3487 13.0052 31.4818C13.0052 31.6055 12.9585 31.6531 12.8652 31.615C12.7905 31.577 12.6225 31.5865 12.4919 31.615C12.1279 31.7101 12.1745 32.1477 12.5665 32.3379C12.7252 32.414 12.9025 32.5757 12.9585 32.6898C13.0052 32.8135 13.1265 32.9086 13.2105 32.9086C13.3132 32.9086 13.4345 33.0417 13.5185 33.251C13.6399 33.5554 13.6865 33.5839 13.9105 33.5363C14.0692 33.4983 14.2839 33.5363 14.4425 33.622C14.6105 33.7076 14.8252 33.7456 14.9745 33.7171C15.1239 33.679 15.2732 33.7076 15.3479 33.7932C15.4225 33.8597 15.5532 33.9453 15.6372 33.9834C15.7212 34.0119 15.8425 34.2212 15.8985 34.4495C16.0665 35.1153 16.0665 35.1153 16.3839 35.0772C16.6452 35.0487 16.6919 35.0772 16.7572 35.3435C16.8319 35.6574 17.0185 35.7621 17.5039 35.7621C17.6439 35.7621 17.8492 35.724 17.9705 35.6765C18.7265 35.3911 18.8665 35.3721 19.4265 35.5243C20.0425 35.6765 20.4719 35.7145 20.4719 35.5908C20.4719 35.4672 21.6292 35.0962 22.0212 35.0962C22.4879 35.0962 22.6559 34.9821 22.5905 34.7253C22.5625 34.6112 22.5812 34.5446 22.6279 34.5826C22.6745 34.6112 22.7119 34.5636 22.7119 34.478C22.7119 34.4019 22.7772 34.3068 22.8519 34.2782C22.9265 34.2402 22.9919 34.1261 22.9919 34.0024C22.9919 33.698 23.2532 33.5078 23.7852 33.4412C24.1679 33.3842 24.3079 33.3176 24.5505 33.0227C24.7185 32.8325 24.8492 32.7279 24.8585 32.7849C24.8585 32.9181 25.4185 32.9561 25.4185 32.823C25.4185 32.7849 25.3719 32.6137 25.3159 32.4425C25.2225 32.1762 25.2319 32.1096 25.3999 31.9289C25.5025 31.8148 25.6332 31.5579 25.6985 31.3582C25.7545 31.1585 25.8852 30.9492 25.9879 30.8826C26.0812 30.8256 26.1652 30.6734 26.1652 30.5592C26.1652 30.4356 26.2212 30.3405 26.2959 30.3405C26.4452 30.3405 26.7252 29.941 26.7252 29.7317C26.7252 29.5605 27.2292 29.1515 27.5652 29.0564C27.6959 29.0184 27.8639 28.9327 27.9385 28.8757C28.2185 28.6474 28.6105 28.4191 28.5545 28.5238C28.5172 28.5903 28.5639 28.6284 28.6759 28.6284C28.7879 28.6284 28.8719 28.5903 28.8719 28.5428C28.8719 28.4952 29.0585 28.4001 29.2919 28.3335C29.5252 28.2669 29.7119 28.1528 29.7119 28.0957C29.7119 27.8009 30.4959 27.5631 31.5039 27.5441C31.7932 27.5345 32.0545 27.506 32.0919 27.4775C32.1199 27.4394 32.3065 27.4489 32.4932 27.4965C32.9505 27.6011 32.9785 27.6011 32.9785 27.4585C32.9785 27.2587 33.3145 27.0209 33.4545 27.116C33.5292 27.1636 33.6972 27.2016 33.8279 27.2016C34.1172 27.2016 34.2479 27.3348 34.3319 27.7058C34.4065 28.0006 34.6305 28.1528 34.9759 28.1528C35.1252 28.1528 35.2185 28.0957 35.2185 28.0101C35.2185 27.8294 35.5079 27.487 35.6572 27.487C35.7319 27.487 35.7785 27.3729 35.7785 27.2016C35.7785 27.0399 35.8252 26.9163 35.8719 26.9163C35.9279 26.9163 35.9652 26.7641 35.9652 26.5834C35.9652 26.4027 36.0119 26.2505 36.0585 26.2505C36.1145 26.2505 36.1519 26.1934 36.1519 26.1173C36.1519 25.9556 36.5532 25.6798 36.7865 25.6798C36.9919 25.6798 37.2252 25.2803 37.1505 25.0806C37.0945 24.9379 37.5705 24.8142 38.2519 24.7857C38.4852 24.7762 38.5412 24.7286 38.5599 24.5004C38.5879 24.3006 38.5599 24.2531 38.4665 24.3101C38.3639 24.3672 38.3639 24.3577 38.4665 24.234C38.5319 24.1484 38.7745 24.0533 38.9985 24.0153C39.3905 23.9582 39.4185 23.9392 39.4185 23.6729C39.4185 23.4541 39.3812 23.397 39.2225 23.397C39.0732 23.397 39.0452 23.359 39.0919 23.2258C39.1292 23.1402 39.1852 22.969 39.2039 22.8549C39.2505 22.6646 39.7919 22.0749 39.7919 22.2271C39.7919 22.2651 39.8572 22.2081 39.9412 22.1034C40.0159 22.0083 40.0532 21.9798 40.0252 22.0559C39.9692 22.151 40.0065 22.1415 40.1745 22.0369C40.2959 21.9608 40.7159 21.8657 41.1079 21.8276C41.7145 21.7705 41.8825 21.7896 42.2652 21.9608C42.5079 22.0749 42.7879 22.1605 42.8905 22.1605C43.3479 22.1605 44.2719 22.9975 44.2719 23.416C44.2719 23.6158 44.3185 23.6824 44.4585 23.6824C44.5612 23.6824 44.6452 23.7489 44.6452 23.825C44.6452 24.0153 44.8972 24.1104 45.0465 23.9867C45.1025 23.9297 45.4105 23.8631 45.7185 23.825C46.5492 23.7394 46.6985 23.6919 46.6985 23.5302C46.6985 23.4446 46.6519 23.416 46.5865 23.4541C46.5212 23.4921 46.5119 23.4826 46.5492 23.4065C46.5865 23.3495 46.6612 23.3209 46.7079 23.3495C46.7545 23.3875 46.7919 23.3685 46.7919 23.3209C46.7919 23.2639 46.9412 23.1973 47.1185 23.1687C47.2959 23.1307 47.4452 23.0641 47.4452 23.0166C47.4452 22.9595 47.4919 22.9214 47.5385 22.9214C47.5945 22.9214 47.6319 22.9785 47.6319 23.0546C47.6319 23.1402 47.8372 23.1973 48.3505 23.2448C48.7519 23.2829 49.0972 23.3495 49.1252 23.397C49.1532 23.4446 49.3585 23.5112 49.5732 23.5492C49.9465 23.6063 49.9652 23.6063 49.9652 23.359C49.9652 23.1782 50.0119 23.1117 50.1425 23.1117C50.2359 23.1117 50.3385 23.0451 50.3759 22.969C50.4132 22.8644 50.5719 22.8263 51.0012 22.8263C51.6265 22.8263 52.0652 22.6266 52.4759 22.17C52.5972 22.0369 52.6625 21.9893 52.6252 22.0654C52.5972 22.1415 52.6345 22.1225 52.7092 22.0273C52.9052 21.78 52.8959 21.5898 52.6812 21.5898C52.5039 21.5898 52.3919 21.2664 52.3919 20.7243C52.3919 20.5721 52.3545 20.4484 52.2985 20.4484C52.2519 20.4484 52.2052 20.3438 52.2052 20.2106V19.9729H30.8132H9.42121L9.17855 19.7351C8.77721 19.3451 8.79588 19.4687 9.19721 19.8682Z" fill="#FFFF00"/>
<path d="M17.0263 35.6607C16.9 35.5964 16.8666 35.547 16.7023 35.1806C16.6622 35.0913 16.6341 35.0816 16.3829 35.0712L16.1076 35.0597L16.0332 34.8556C15.9922 34.7434 15.9459 34.5898 15.9301 34.5143C15.8693 34.2229 15.737 34.0317 15.4759 33.8578C15.236 33.698 15.2136 33.6912 14.9242 33.6904C14.6986 33.6898 14.5789 33.6686 14.4495 33.6066C14.3223 33.5458 14.1948 33.5226 13.9687 33.5193L13.661 33.5149L13.5309 33.2467C13.4185 33.015 13.3781 32.9686 13.2348 32.906C13.1299 32.8601 13.0326 32.7776 12.9701 32.6813C12.8656 32.5204 12.7422 32.4135 12.5344 32.304C12.3942 32.2301 12.2576 32.0321 12.2574 31.9024C12.2573 31.8563 12.2903 31.7769 12.3307 31.726C12.3945 31.6458 12.4396 31.633 12.6714 31.6295C12.9787 31.6248 13.0264 31.6046 13.0264 31.4792C13.0264 31.3445 13.0915 31.3131 13.4211 31.289C13.8019 31.2611 13.9931 31.1703 14.0416 30.9943C14.0632 30.9159 14.1182 30.8431 14.1809 30.8101C14.3105 30.7418 14.4162 30.4975 14.5676 29.917C14.6801 29.4854 14.6821 29.4611 14.6802 28.52C14.6781 27.4722 14.7068 26.9893 14.7724 26.9688C14.7957 26.9615 14.897 26.9444 14.9974 26.9307C15.1231 26.9135 15.1927 26.8816 15.2206 26.8284C15.243 26.7858 15.2878 26.5532 15.3202 26.3114C15.4288 25.5013 15.3221 24.0894 15.1047 23.4614C15.0413 23.2781 14.9891 23.0629 14.9887 22.9832C14.9877 22.7925 14.9154 22.4502 14.8476 22.3149C14.8179 22.2556 14.7615 22.2071 14.7221 22.2071C14.6312 22.2071 14.5416 22.0681 14.4851 21.8396C14.4387 21.6519 14.3341 21.511 14.3341 21.6363C14.3341 21.6726 14.3168 21.6913 14.2956 21.678C14.2745 21.6647 14.2572 21.6019 14.2572 21.5385C14.2572 21.4379 14.2432 21.4232 14.1475 21.4232C13.935 21.4232 13.819 21.3518 13.7187 21.1593C13.6641 21.0543 13.5562 20.9291 13.4687 20.8692C13.3677 20.7999 13.3079 20.7255 13.2944 20.6525C13.2811 20.5803 13.2529 20.5449 13.2141 20.5514C13.1811 20.5569 13.1228 20.5261 13.0844 20.4828C12.9997 20.3874 12.9495 20.3821 12.9495 20.4684C12.9495 20.5224 12.919 20.529 12.758 20.5096C12.618 20.4926 12.5516 20.5017 12.5108 20.5433C12.4801 20.5746 12.4168 20.6001 12.3701 20.6001C12.3235 20.6001 12.247 20.6422 12.2002 20.6937C12.1504 20.7484 12.0478 20.7988 11.9529 20.8151C11.8438 20.8339 11.7002 20.9124 11.5145 21.0548C11.2184 21.2818 11.1148 21.3073 10.8238 21.225C10.721 21.1959 10.6522 21.141 10.5875 21.0366C10.4713 20.8491 10.1247 20.529 9.94929 20.4474C9.87509 20.4128 9.74528 20.3328 9.66084 20.2695C9.45583 20.116 9.065 19.7305 9.065 19.6819C9.065 19.6606 9.13921 19.7174 9.22991 19.8081L9.39483 19.973H30.7821H52.1694L52.188 20.1703C52.1994 20.2919 52.2363 20.4009 52.284 20.4544C52.3445 20.5222 52.3664 20.6168 52.3838 20.8841C52.4131 21.334 52.5085 21.5632 52.6858 21.6098C52.7689 21.6316 52.8174 21.6701 52.824 21.7195C52.8353 21.8025 52.6889 22.0733 52.6527 22.0365C52.6405 22.024 52.5165 22.1202 52.3772 22.2503C52.229 22.3887 52.008 22.5436 51.8444 22.6238C51.595 22.746 51.5139 22.7647 51.0932 22.797C50.493 22.8429 50.4286 22.8582 50.3554 22.9721C50.3193 23.0283 50.2408 23.0762 50.1592 23.0917C50.0041 23.1214 49.9485 23.2017 49.9485 23.3958C49.9485 23.4811 49.9267 23.5399 49.8898 23.5543C49.801 23.589 49.2913 23.4788 49.1194 23.3876C49.0167 23.3331 48.8001 23.287 48.4485 23.2447C47.8155 23.1686 47.6855 23.1304 47.6394 23.0068C47.5963 22.8912 47.514 22.8857 47.4436 22.9936C47.4101 23.045 47.2925 23.1022 47.1216 23.1503C46.9735 23.192 46.8343 23.2511 46.8121 23.2816C46.79 23.3121 46.7209 23.343 46.6586 23.3502C46.5902 23.3582 46.5405 23.3893 46.5332 23.4289C46.5241 23.4779 46.541 23.4891 46.6002 23.4733C46.6613 23.457 46.6793 23.4708 46.6793 23.5338C46.6793 23.6721 46.6059 23.6929 45.6297 23.8315C45.4014 23.8639 45.1562 23.9186 45.0848 23.9532C44.8887 24.048 44.7492 24.0162 44.6772 23.8602C44.6087 23.7119 44.5422 23.6588 44.4239 23.6579C44.3365 23.6573 44.2948 23.5889 44.2948 23.4463C44.2948 23.2719 44.0977 22.9572 43.8215 22.6904C43.4965 22.3765 43.1803 22.1971 42.8348 22.1303C42.6982 22.104 42.4386 22.0181 42.2579 21.9396C41.9441 21.8031 41.9106 21.7969 41.5064 21.7999C40.9074 21.8044 40.42 21.899 40.0492 22.0828C40.0303 22.0921 40.027 22.0798 40.0418 22.0554C40.0915 21.9735 40.0014 22.0103 39.9103 22.1091C39.8606 22.163 39.7907 22.2071 39.755 22.2071C39.6895 22.2071 39.3988 22.4987 39.2851 22.6784C39.2177 22.785 39.0642 23.23 39.0642 23.3188C39.0642 23.3795 39.1442 23.4222 39.2582 23.4222C39.3508 23.4222 39.4103 23.5359 39.4103 23.7126C39.4103 23.8861 39.3282 23.9437 38.9882 24.0089C38.6963 24.0649 38.4683 24.174 38.4096 24.2858C38.3714 24.3586 38.3766 24.3631 38.4703 24.3392C38.5723 24.3131 38.5726 24.3137 38.5454 24.4849C38.5304 24.5794 38.4982 24.6775 38.4739 24.7028C38.4495 24.7281 38.2333 24.7684 37.9935 24.7924C37.7537 24.8164 37.4682 24.8663 37.3589 24.9032C37.165 24.9688 37.1599 24.9745 37.1391 25.1467C37.1125 25.3681 37.0092 25.5703 36.8989 25.6174C36.8523 25.6373 36.7433 25.6718 36.6567 25.694C36.4409 25.7494 36.1871 25.9438 36.1564 26.0773C36.1427 26.1367 36.0971 26.2134 36.0551 26.2477C35.9992 26.2933 35.9716 26.3794 35.9524 26.5689C35.9359 26.7311 35.9005 26.8567 35.8577 26.9049C35.8201 26.9473 35.776 27.0822 35.7596 27.2047C35.7318 27.4139 35.6807 27.4964 35.5783 27.4978C35.5081 27.4988 35.2608 27.8002 35.233 27.9188C35.1925 28.0917 35.1448 28.1256 34.9423 28.1256C34.6199 28.1256 34.4086 27.9558 34.3288 27.6328C34.3063 27.5417 34.2419 27.4112 34.1857 27.3428C34.0981 27.2363 34.0478 27.2139 33.8335 27.1861C33.696 27.1682 33.5338 27.1338 33.473 27.1096C33.306 27.0431 33.1054 27.1565 33.0066 27.3732L32.9297 27.5419L32.7182 27.5119C32.4272 27.4706 32.1095 27.4746 31.4047 27.5285C30.3903 27.6061 29.8543 27.7646 29.717 28.0276C29.6503 28.1553 29.5147 28.2386 29.1662 28.3657C29.0423 28.4109 28.913 28.4811 28.8788 28.5219C28.8016 28.6137 28.5644 28.6252 28.5644 28.5371C28.5644 28.4366 28.5118 28.4614 28.0124 28.7977C27.8251 28.9238 27.652 29.0271 27.6278 29.0271C27.527 29.0271 27.1094 29.2632 26.9419 29.4149C26.805 29.5388 26.7474 29.6275 26.7028 29.7827C26.6375 30.01 26.449 30.2684 26.3088 30.3227C26.2165 30.3584 26.1654 30.4473 26.1243 30.6431C26.112 30.702 26.0406 30.8126 25.9656 30.889C25.8391 31.0179 25.6427 31.3784 25.6418 31.4832C25.6416 31.5084 25.5549 31.6608 25.4492 31.822C25.3434 31.9831 25.257 32.1566 25.2571 32.2074C25.2573 32.2582 25.2912 32.4129 25.3324 32.5512C25.3737 32.6895 25.3985 32.8173 25.3876 32.8354C25.3511 32.8955 24.959 32.8726 24.8942 32.8065C24.8392 32.7505 24.8257 32.7514 24.7456 32.8163C24.6971 32.8556 24.5901 32.964 24.5078 33.0572C24.3146 33.2761 24.157 33.3551 23.7621 33.4309C23.233 33.5325 22.9877 33.7019 22.9877 33.9656C22.9877 34.0774 22.8888 34.2643 22.8142 34.2935C22.7807 34.3066 22.7351 34.3705 22.7129 34.4354C22.6907 34.5004 22.6459 34.5535 22.6135 34.5535C22.5668 34.5535 22.5588 34.5864 22.5752 34.7105C22.6086 34.9643 22.5329 35.0239 22.121 35.0682C21.4854 35.1366 20.6185 35.4033 20.4642 35.5779C20.399 35.6516 20.3644 35.6575 20.1254 35.635C19.979 35.6212 19.6674 35.5646 19.4331 35.5091C18.9095 35.3852 18.7302 35.3964 18.1699 35.5879C17.6829 35.7543 17.2627 35.7811 17.0263 35.6607L17.0263 35.6607Z" fill="#FFD500"/>
<path d="M9.17957 19.7143C9.05535 19.5935 8.93213 19.5021 8.90576 19.511C8.85723 19.5275 8.72792 19.3924 8.56954 19.1597C8.48542 19.0361 8.50237 18.9842 8.59576 19.0794C8.62115 19.1052 8.64192 19.1137 8.64192 19.0982C8.64192 19.0826 8.35878 18.7718 8.01272 18.4074C7.66666 18.043 7.30234 17.6193 7.20312 17.4658C7.09954 17.3056 6.97851 17.1673 6.91888 17.1411C6.76813 17.0749 4.24724 17.0744 4.07087 17.1405C3.96009 17.1821 3.94508 17.1807 3.9639 17.1307C3.99509 17.0479 3.9354 17.0589 3.85359 17.151C3.8153 17.1941 3.7607 17.2294 3.73225 17.2294C3.7038 17.2294 3.65023 17.2559 3.61321 17.2884C3.57619 17.3209 3.44725 17.4345 3.32667 17.541C3.05606 17.78 2.9082 17.8171 2.67487 17.7046C2.5828 17.6602 2.46507 17.5925 2.41323 17.554C2.32441 17.4882 2.32047 17.4881 2.34472 17.5527C2.37191 17.6252 2.31719 17.6489 2.27671 17.5821C2.26364 17.5606 2.21271 17.5429 2.16355 17.5429C2.10749 17.5429 2.06689 17.5147 2.05469 17.4671C2.04168 17.4164 2.0115 17.3974 1.96366 17.4098C1.92431 17.4199 1.75521 17.3923 1.58789 17.3484C1.42057 17.3045 1.23636 17.2686 1.17855 17.2686C1.05917 17.2686 1.02587 17.2125 1.05453 17.0597C1.07719 16.939 1.14213 16.8777 1.14213 16.9771C1.14213 17.0321 1.15195 17.0347 1.20161 16.9927C1.24429 16.9566 1.25788 16.886 1.24969 16.7429L1.23828 16.5435L1.05758 16.5316C0.918521 16.5225 0.881797 16.5067 0.898235 16.463C0.914052 16.421 0.888584 16.4063 0.800099 16.4063C0.694364 16.4063 0.680603 16.3934 0.680603 16.2946C0.680603 16.164 0.823338 15.9553 1.0992 15.6827C1.33458 15.45 1.36519 15.4888 1.13491 15.7279C1.04633 15.8199 0.982453 15.9039 0.992962 15.9146C1.03093 15.9533 1.68069 15.2553 1.72627 15.1268C1.75194 15.0545 1.79423 14.9953 1.82024 14.9953C1.84625 14.9953 1.87306 14.9556 1.87982 14.9071C1.88818 14.8471 1.92284 14.8147 1.98826 14.8058C2.04114 14.7986 2.10085 14.7765 2.12095 14.7568C2.14104 14.7371 2.21327 14.7209 2.28145 14.7209C2.41537 14.7209 2.64209 14.5586 2.64209 14.4627C2.64209 14.4262 2.68538 14.4074 2.76901 14.4074C2.88842 14.4074 2.98823 14.3508 2.98823 14.2832C2.98823 14.2666 2.95794 14.2627 2.92092 14.2746C2.86343 14.293 2.86449 14.2871 2.92824 14.2342C3.03851 14.1426 3.39539 14.0154 3.54198 14.0154C3.6832 14.0154 3.86596 13.9031 4.15476 13.6387C4.36856 13.443 4.52236 13.3892 4.87279 13.3876C5.11093 13.3865 5.39395 13.3406 5.43773 13.296C5.44895 13.2845 5.47171 13.149 5.48832 12.9949C5.50492 12.8407 5.53764 12.6951 5.56103 12.6712C5.62139 12.6097 5.61383 12.5737 5.53623 12.553C5.49922 12.5432 5.53521 12.533 5.61621 12.5305C5.75911 12.5261 5.76274 12.5225 5.73823 12.4088C5.71383 12.2955 5.7169 12.2924 5.82879 12.3152C5.93252 12.3363 5.97479 12.3097 6.23359 12.06C6.39254 11.9067 6.54944 11.7813 6.58228 11.7813C6.61601 11.7813 6.64197 11.7477 6.64197 11.7041C6.64197 11.6508 6.66024 11.6341 6.7011 11.6501C6.73361 11.6628 6.7943 11.6418 6.83594 11.6034C6.87759 11.565 6.92241 11.5445 6.93555 11.5579C6.98408 11.6073 7.48716 11.3378 7.48784 11.262C7.48799 11.2458 7.45781 11.2323 7.4208 11.232C7.36329 11.2314 7.36189 11.2258 7.41118 11.1934C7.44291 11.1725 7.52791 11.1665 7.60007 11.18C7.7112 11.2007 7.72757 11.1946 7.70705 11.1401C7.68851 11.0909 7.70571 11.0758 7.78025 11.0758C7.84076 11.0758 7.91359 11.0323 7.97245 10.961C8.11442 10.7891 8.81135 10.4495 9.0803 10.4212C9.24012 10.4044 9.29439 10.384 9.28019 10.3463C9.26566 10.3077 9.28963 10.3004 9.37437 10.3177C9.46015 10.3352 9.48805 10.3264 9.48805 10.2817C9.48805 10.2491 9.53316 10.1924 9.58829 10.1556C9.66695 10.1031 9.68416 10.0662 9.6682 9.98449C9.65702 9.92721 9.67187 9.83625 9.7012 9.78236C9.73054 9.72846 9.75516 9.61658 9.75591 9.53372C9.75697 9.4167 9.77444 9.37849 9.83419 9.36257C9.90427 9.34389 9.92801 9.30347 9.91567 9.22383C9.90579 9.16011 9.97875 9.20054 10.0959 9.32368C10.1635 9.39477 10.2188 9.47117 10.2188 9.49346C10.2188 9.5358 10.51 9.74077 10.6865 9.82267C10.7577 9.85569 10.8339 9.8592 10.9365 9.83418C11.0618 9.80363 11.0822 9.78431 11.0712 9.7063C11.0597 9.62461 11.0703 9.61673 11.1673 9.63525C11.3138 9.66323 11.4051 9.62343 11.462 9.50682C11.4995 9.42991 11.5474 9.40551 11.6948 9.38817C11.8179 9.37368 11.9017 9.33906 11.9438 9.28529C11.9787 9.24071 12.0591 9.19191 12.1226 9.17683C12.2712 9.14154 12.4305 8.99576 12.3654 8.95473C12.3359 8.93618 12.3604 8.91609 12.4323 8.89989C12.6301 8.85528 12.6418 8.84629 12.6418 8.73882C12.6418 8.59171 12.7969 8.40033 12.987 8.313C13.1306 8.247 13.1716 8.24435 13.3779 8.28778C13.5842 8.3312 13.621 8.32883 13.7278 8.26527C13.8512 8.19184 13.9245 8.07911 13.8231 8.11876C13.7533 8.14606 13.7186 8.02788 13.7617 7.90934C13.8175 7.75537 13.9287 7.80698 14.151 8.09012C14.2358 8.19814 14.3341 8.20073 14.3341 8.09493C14.3341 8.01792 14.3482 8.01566 14.6654 8.04189C14.9927 8.06895 14.9961 8.0683 14.9538 7.98772C14.8863 7.85909 14.9024 7.7861 15.0264 7.65972C15.1219 7.56246 15.1619 7.54653 15.2572 7.56786C15.3609 7.59107 15.3725 7.58396 15.3725 7.49737C15.3725 7.32599 15.4503 7.30026 15.8756 7.33099L16.2627 7.35896L16.4138 7.19719C16.5221 7.08113 16.5648 7.00146 16.5648 6.91528C16.5648 6.82556 16.5791 6.80076 16.6214 6.81732C16.6526 6.82951 16.6916 6.81572 16.708 6.78669C16.7244 6.75765 16.7698 6.72751 16.8088 6.71972C16.851 6.7113 16.9007 6.64357 16.9313 6.55281C16.9595 6.4688 17.0076 6.3747 17.038 6.34369C17.0861 6.29465 17.1039 6.30248 17.1748 6.40389C17.309 6.59606 17.5803 6.6017 17.6787 6.41436C17.7334 6.31019 17.6444 6.08531 17.5199 6.013C17.3798 5.93165 16.2525 5.94648 16.0311 6.03259C15.8071 6.11968 15.7956 6.11711 15.7956 5.98045C15.7956 5.88775 15.8124 5.86286 15.875 5.86286C15.9187 5.86286 15.9854 5.84597 16.0233 5.82533C16.1678 5.74648 17.4584 5.60185 17.6288 5.64541C17.6932 5.66188 17.7186 5.69634 17.7186 5.76718C17.7186 5.99194 18.017 6.3724 18.1934 6.3724C18.2904 6.3724 18.2673 6.322 18.1305 6.23521C17.9823 6.14111 17.8272 5.84803 17.8423 5.69044C17.8529 5.57955 17.8883 5.5444 18.0455 5.48833C18.1122 5.46455 18.1058 5.45621 17.9974 5.42559C17.8832 5.39333 17.8724 5.37687 17.8724 5.23462C17.8724 5.14901 17.8557 5.07897 17.8353 5.07897C17.786 5.07897 17.7186 5.21122 17.7186 5.30789C17.7186 5.36596 17.6994 5.38007 17.6415 5.36463C17.599 5.35333 17.5428 5.36226 17.5165 5.38449C17.4406 5.4485 16.9065 5.51011 16.4274 5.51011C15.9879 5.51011 15.9879 5.51011 16.0648 5.43172C16.1071 5.3886 16.1417 5.33569 16.1417 5.31413C16.1417 5.29258 16.176 5.27494 16.2179 5.27494C16.3151 5.27494 16.3508 5.1379 16.3235 4.86971C16.2948 4.58759 16.224 4.44126 16.1286 4.46668C16.0872 4.47772 16.004 4.47669 15.9437 4.4644C15.8618 4.44771 15.834 4.41954 15.834 4.35315C15.834 4.30426 15.8081 4.25411 15.7763 4.2417C15.7071 4.21464 15.7002 4.02633 15.7633 3.88536C15.798 3.8077 15.8361 3.78553 15.935 3.78553C16.0239 3.78553 16.0748 3.76131 16.1044 3.70484C16.1597 3.59973 16.1153 3.39358 16.0375 3.39358C15.9904 3.39358 15.9826 3.36369 16.0003 3.25226C16.0191 3.1342 16.0104 3.10765 15.9476 3.09091C15.8893 3.07538 15.8725 3.03673 15.8725 2.91867C15.8725 2.83496 15.8564 2.76646 15.8368 2.76646C15.8171 2.76646 15.7739 2.73878 15.7407 2.70495C15.6665 2.62934 15.7259 2.48436 15.8268 2.49457C15.9526 2.50728 15.9826 2.49124 15.9948 2.40478C16.0019 2.35447 16.0999 2.24236 16.2261 2.14022C16.3465 2.04273 16.4285 1.957 16.4082 1.9497C16.3879 1.9424 16.2906 1.96444 16.1919 1.99869C15.9069 2.09765 15.8763 2.08771 15.9004 1.90418C15.9173 1.77588 15.9095 1.7474 15.8573 1.7474C15.8051 1.7474 15.7948 1.70955 15.8003 1.53756C15.8076 1.30967 15.7829 1.23786 15.6971 1.23786C15.6592 1.23786 15.6417 1.19366 15.6417 1.0981C15.6417 0.925409 15.6859 0.837577 15.8169 0.750151C15.9158 0.684101 15.9176 0.684437 15.8927 0.764198C15.8623 0.862044 15.8719 0.863461 16.0346 0.785038L16.1609 0.724162L16.438 1.00123C16.6153 1.17854 16.7575 1.28695 16.833 1.30234C16.9789 1.33207 16.9961 1.35984 17.031 1.62249C17.0813 2.0001 17.3967 2.34404 17.741 2.39665C17.8344 2.41093 17.9109 2.43013 17.9109 2.43932C17.9109 2.44851 17.8763 2.52517 17.834 2.60968C17.7371 2.8032 17.7373 2.80566 17.8532 2.80566C17.913 2.80566 17.9493 2.82787 17.9493 2.86445C17.9493 2.94288 18.001 2.93878 18.0731 2.85465C18.1931 2.71438 18.2179 2.60586 18.2315 2.1605C18.2399 1.88774 18.2633 1.68613 18.2897 1.65919C18.323 1.62524 18.3339 1.63421 18.3339 1.69556C18.3339 1.8001 18.4282 1.87976 18.5222 1.8547C18.5721 1.84141 18.6217 1.87127 18.6774 1.94806C18.7666 2.07097 18.8463 2.10032 18.807 1.99573C18.7898 1.95026 18.7968 1.93958 18.83 1.96047C18.8578 1.97801 18.8725 2.04971 18.8653 2.13348C18.8553 2.25165 18.8649 2.27452 18.9205 2.26501C18.9627 2.25779 18.9878 2.27842 18.9878 2.32036C18.9878 2.4142 18.8221 2.69069 18.703 2.7956C18.5266 2.95098 18.5645 3.05471 18.9301 3.41649C19.2009 3.68448 19.257 3.76077 19.257 3.86077C19.257 3.94029 19.2761 3.98151 19.3129 3.98151C19.3703 3.98151 19.4412 4.23798 19.3965 4.28359C19.3835 4.29682 19.3381 4.27563 19.2957 4.23649C19.2291 4.17503 19.2185 4.17379 19.2185 4.2274C19.2185 4.3047 19.321 4.41265 19.3944 4.41265C19.4301 4.41265 19.4493 4.45489 19.4493 4.5335C19.4493 4.61267 19.4659 4.64878 19.4974 4.6382C19.5283 4.6278 19.5523 4.5087 19.5647 4.30357C19.5754 4.12661 19.6053 3.9634 19.632 3.93627C19.7098 3.85725 19.6893 3.79086 19.5935 3.81171C19.5092 3.83007 19.5089 3.829 19.5816 3.76884C19.6227 3.73491 19.6786 3.70714 19.7059 3.70714C19.752 3.70714 19.7741 3.65006 19.8045 3.45238C19.8151 3.38374 19.8411 3.37561 20.0133 3.387C20.14 3.39538 20.252 3.37792 20.3278 3.33801C20.3999 3.3 20.5428 3.276 20.6971 3.276C20.93 3.276 20.9565 3.28502 21.0547 3.39752C21.164 3.52276 21.3723 3.65509 21.3723 3.59929C21.3723 3.58197 21.3454 3.5286 21.3125 3.48069C21.2795 3.43278 21.2682 3.39358 21.2873 3.39358C21.3383 3.39358 21.4361 3.51737 21.4672 3.62112C21.4982 3.7246 21.7739 3.94231 21.874 3.94231C21.9108 3.94231 21.951 3.91586 21.9631 3.88352C21.9777 3.84483 22.035 3.82567 22.1307 3.82748C22.2862 3.83043 22.492 3.89507 22.3627 3.90036C22.3257 3.90188 22.2954 3.92013 22.2954 3.94093C22.2954 4.01579 22.4531 4.0641 22.6162 4.03918C22.7541 4.01811 22.8413 4.03987 23.1628 4.17553C23.3732 4.2643 23.567 4.36617 23.5934 4.40188C23.6247 4.44413 23.6415 4.60892 23.6415 4.87346C23.6415 5.29217 23.6765 5.43172 23.7816 5.43172C23.8283 5.43172 23.8361 5.45615 23.8159 5.53844C23.7898 5.64429 23.7902 5.64456 23.8694 5.57156C23.962 5.48611 23.9757 5.2937 23.8915 5.26076C23.8482 5.24384 23.8338 5.1731 23.8338 4.97764C23.8338 4.73636 23.8395 4.71859 23.9107 4.73757C23.9721 4.75393 23.9876 4.73877 23.9876 4.66237C23.9876 4.60974 24.0162 4.52219 24.0512 4.46782C24.1143 4.36968 24.114 4.36915 24.0127 4.39505C23.9377 4.41424 23.9107 4.40621 23.9107 4.36468C23.9107 4.3078 24.1572 4.2066 24.197 4.24715C24.2088 4.25913 24.2184 4.40566 24.2184 4.57276C24.2184 4.90299 24.2425 5.01425 24.3054 4.97462C24.3308 4.95863 24.3382 4.97903 24.3253 5.0293C24.2953 5.14645 24.328 5.17379 24.5838 5.24489C24.7107 5.28017 24.8492 5.32166 24.8915 5.33708C24.9472 5.35738 24.9313 5.32498 24.8338 5.21951C24.7125 5.0883 24.7058 5.07008 24.7665 5.03529C24.8035 5.01405 24.8339 4.96669 24.834 4.93004C24.8348 4.66531 25.0791 4.29507 25.253 4.29507C25.3386 4.29507 25.3458 4.31556 25.3343 4.52553C25.328 4.64003 25.3562 4.68566 25.5419 4.86183C25.6601 4.97394 25.7568 5.09094 25.7568 5.12183C25.7568 5.29959 26.3973 6.04615 26.6562 6.17017C26.8455 6.26085 26.8722 6.33181 26.8722 6.7443C26.8722 7.07859 26.8119 7.3752 26.716 7.51244C26.6165 7.65481 26.6307 7.7437 26.7653 7.82069C26.9159 7.90681 26.9769 7.83442 26.8931 7.66918L26.8306 7.54595L26.9283 7.57094C27.0171 7.59365 27.026 7.58492 27.026 7.47533C27.026 7.38293 27.0398 7.36014 27.0851 7.37785C27.1546 7.405 27.2637 7.31388 27.4162 7.10142C27.5417 6.92666 27.5515 6.88193 27.4642 6.88193C27.42 6.88193 27.4106 6.86238 27.4312 6.81334C27.447 6.77561 27.4684 6.69428 27.4787 6.63259C27.4972 6.52218 27.5006 6.52084 27.6915 6.54665C27.7982 6.56107 27.9171 6.59012 27.9557 6.61119C28.0619 6.66911 28.0469 6.54781 27.9097 6.2395C27.7594 5.90171 27.725 5.66567 27.8129 5.57605C27.8962 5.49121 28.1293 5.49074 28.3425 5.57499C28.5608 5.66123 29.0045 5.95982 29.1019 6.08606C29.225 6.24555 29.1861 6.56837 29.0438 6.56837C29.0036 6.56837 28.9875 6.61392 28.9875 6.72779C28.9875 6.86938 28.9789 6.88443 28.9106 6.86233C28.8419 6.84012 28.8337 6.85529 28.8337 7.00408C28.8337 7.1527 28.8129 7.1911 28.6415 7.35947C28.4694 7.52849 28.4311 7.54824 28.2749 7.54824C28.1556 7.54824 28.0935 7.56677 28.0784 7.60681C28.0663 7.63902 28.0407 7.65552 28.0216 7.64348C27.9674 7.6093 27.8433 7.66221 27.8176 7.73047C27.7992 7.77919 27.8135 7.78724 27.8854 7.76884C27.9745 7.74605 27.9757 7.74914 27.9388 7.91146C27.8662 8.23134 27.8512 8.25172 27.7061 8.22773C27.4114 8.17898 27.3003 8.42653 27.5289 8.62262C27.6773 8.74986 27.6996 8.74887 27.9068 8.60579C28.149 8.43856 28.1994 8.4585 28.0332 8.65574C28.0013 8.6936 27.988 8.73768 28.0038 8.7537C28.0406 8.79123 28.6908 8.10758 28.6625 8.06102C28.6357 8.01667 28.9836 7.69424 29.2394 7.52645C29.5329 7.33398 29.7152 7.26838 29.9298 7.27802C30.0606 7.2839 30.119 7.27194 30.1123 7.2406C30.0976 7.17113 30.3361 7.03902 30.4765 7.03886C30.6357 7.03866 30.6873 7.13446 30.6721 7.40244L30.6605 7.60704L30.4875 7.59891C30.3923 7.59445 30.2318 7.57941 30.1308 7.5655C30.0019 7.54774 29.9285 7.556 29.8845 7.59321C29.85 7.62237 29.792 7.64108 29.7555 7.63478C29.7191 7.62849 29.679 7.65054 29.6665 7.68378C29.654 7.71702 29.6164 7.74422 29.5829 7.74422C29.504 7.74422 29.4251 7.941 29.3907 8.22364C29.358 8.49305 29.3887 8.6457 29.4756 8.6457C29.5105 8.6457 29.6443 8.60303 29.7729 8.55089C29.9015 8.49874 30.0703 8.4441 30.1481 8.42947L30.2896 8.40287L30.2832 8.57328C30.2787 8.69176 30.304 8.78847 30.366 8.89067C30.4733 9.06741 30.5534 9.08797 30.4664 8.91642C30.4325 8.84975 30.4155 8.78438 30.4284 8.77116C30.4738 8.72495 30.7131 8.89112 30.757 8.99937C30.8193 9.15248 30.7488 9.2723 30.4875 9.45798C30.3153 9.58028 30.2737 9.63176 30.2639 9.7345C30.256 9.81655 30.2311 9.86074 30.1928 9.86074C30.0237 9.86074 29.5644 10.2178 29.5644 10.3492C29.5644 10.4104 29.8192 10.6054 29.899 10.6054C29.9255 10.6054 29.9368 10.5794 29.9245 10.5468C29.9068 10.4997 29.9259 10.4929 30.0219 10.5125C30.1171 10.5319 30.1413 10.5237 30.1413 10.4718C30.1413 10.405 30.3519 10.2945 30.6266 10.2172C30.7848 10.1727 30.8348 10.1888 30.7637 10.2612C30.6687 10.358 30.7235 10.3702 30.8432 10.2789C30.912 10.2265 31.0236 10.155 31.0913 10.1201C31.23 10.0487 31.5083 10.0352 31.5465 10.0981C31.5887 10.1677 31.5301 10.3244 31.4524 10.3496C31.3229 10.3915 31.3294 10.483 31.4735 10.6455C31.6347 10.8273 31.7088 10.8388 31.8355 10.7014C31.9086 10.622 31.9169 10.5945 31.8756 10.5685C31.8354 10.5432 31.8419 10.5297 31.904 10.5096C32.0004 10.4784 32.1154 10.5349 32.197 10.6537C32.2972 10.7995 32.2705 10.8699 32.0831 10.9544C31.7962 11.0837 31.8051 11.2204 32.103 11.2611C32.2305 11.2785 32.2742 11.2692 32.3019 11.2188C32.3297 11.1682 32.3967 11.1542 32.6101 11.1542C32.8172 11.1542 32.8937 11.1389 32.9284 11.0906C32.9839 11.0132 33.1278 11.0483 33.1573 11.1464C33.1683 11.183 33.1593 11.2835 33.1374 11.3697C33.0492 11.7159 33.0477 11.6976 33.1659 11.7213C33.2264 11.7334 33.3496 11.7607 33.4398 11.7819C33.5301 11.8031 33.6826 11.8205 33.7789 11.8205C33.9974 11.8205 34.0738 11.8615 34.1794 12.0356C34.2279 12.1156 34.2937 12.1732 34.3366 12.1732C34.4309 12.1732 34.4316 12.1784 34.2931 11.8467C34.2286 11.6921 34.1597 11.526 34.1401 11.4775C34.1205 11.429 34.0849 11.3893 34.061 11.3893C34.0371 11.3893 34.0274 11.3634 34.0393 11.3316C34.0513 11.2999 34.0315 11.2514 33.9954 11.2238C33.9592 11.1963 33.924 11.1473 33.917 11.115C33.9101 11.0826 33.882 11.0297 33.8547 10.9974C33.8274 10.9651 33.8133 10.9153 33.8234 10.8868C33.8335 10.8583 33.8075 10.7966 33.7655 10.7496C33.6573 10.6284 33.6028 10.5088 33.6028 10.3925C33.6028 10.3202 33.5824 10.2919 33.5305 10.2919C33.4149 10.2919 33.3601 10.1923 33.3891 10.0347C33.4113 9.91418 33.4051 9.89527 33.3454 9.9016C33.2051 9.91646 33.1746 9.89708 33.1169 9.75642C33.0457 9.58269 33.0755 9.36884 33.1788 9.31249C33.2727 9.26126 33.5643 9.2609 33.5643 9.31203C33.5643 9.33359 33.5361 9.35123 33.5015 9.35123C33.3973 9.35123 33.4595 9.64573 33.6017 9.82612C33.668 9.91021 33.7109 9.99768 33.6971 10.0205C33.6833 10.0433 33.7083 10.0717 33.7527 10.0835C33.7972 10.0954 33.8335 10.1355 33.8335 10.1726C33.8335 10.2097 33.8941 10.2963 33.9681 10.3649C34.0789 10.4676 34.1027 10.5174 34.1027 10.6456C34.1027 10.758 34.1188 10.8014 34.1604 10.8014C34.2001 10.8014 34.2181 10.8421 34.2181 10.9318C34.2181 11.0174 34.2487 11.0914 34.3071 11.1474C34.4246 11.2598 34.4558 11.2549 34.4248 11.1288C34.3856 10.9696 34.4723 11.0482 34.5842 11.2733C34.6957 11.4975 34.7018 11.5461 34.6185 11.5461C34.5708 11.5461 34.5789 11.5721 34.6554 11.6648C34.7093 11.73 34.7436 11.8094 34.7316 11.8412C34.718 11.8773 34.733 11.8989 34.7717 11.8989C34.812 11.8989 34.8335 11.933 34.8335 11.9969C34.8335 12.0608 34.855 12.0949 34.8953 12.0949C34.9372 12.0949 34.9492 12.1159 34.9325 12.1603C34.9165 12.2027 34.9474 12.268 35.0206 12.3464C35.2182 12.5582 35.9298 13.846 35.9598 14.046C35.9669 14.0938 36.0193 14.1824 36.0762 14.2429C36.1331 14.3034 36.1796 14.3816 36.1796 14.4166C36.1796 14.4517 36.2307 14.5175 36.2932 14.5629C36.3569 14.6091 36.3981 14.6686 36.387 14.6983C36.3757 14.7282 36.4185 14.7886 36.4854 14.8372C36.6151 14.9313 36.718 15.1037 36.718 15.2269C36.718 15.307 37.1308 15.7511 37.1778 15.7215C37.2096 15.7015 38.5256 17.0409 38.5258 17.0934C38.5261 17.183 39.0331 17.6683 39.2076 17.7459C39.3294 17.8 39.4951 17.9378 39.7006 18.1556C40.0081 18.4814 40.0115 18.4836 40.2006 18.4819C40.3053 18.481 40.4603 18.4527 40.5449 18.419C40.6295 18.3853 40.8718 18.3102 41.0833 18.252C41.2948 18.1938 41.5457 18.1049 41.6408 18.0545C41.7359 18.004 41.8607 17.9641 41.9181 17.9658C41.9756 17.9674 42.0861 17.9249 42.1637 17.8712C42.2627 17.8027 42.2979 17.7918 42.2818 17.8347C42.252 17.9136 42.2672 17.9117 42.4189 17.8175C42.4997 17.7673 42.6128 17.7392 42.7346 17.7391C42.9106 17.7389 42.937 17.7255 43.0999 17.5528C43.3353 17.3033 43.5431 16.9806 43.4818 16.9598C43.4559 16.951 43.3947 16.9948 43.3457 17.0572C43.2968 17.1196 43.2566 17.1567 43.2565 17.1397C43.2561 17.0671 43.4158 16.7987 43.4917 16.7445C43.5716 16.6875 43.5723 16.6804 43.5124 16.528C43.4416 16.3476 43.4699 16.3092 43.6449 16.3484C43.7512 16.3722 43.7612 16.3662 43.7497 16.2856C43.7396 16.214 43.761 16.1901 43.8589 16.1639C44.0176 16.1215 44.1794 15.9244 44.1794 15.7735C44.1794 15.6742 44.1911 15.6601 44.2563 15.6812C44.3494 15.7113 44.3504 15.7009 44.2704 15.53C44.2113 15.4038 44.2119 15.3866 44.28 15.2445C44.3519 15.0944 44.3542 15.0932 44.6026 15.0819C44.8911 15.0688 44.9746 15.1127 45.0099 15.2959C45.0317 15.4088 45.0199 15.4291 44.8797 15.5193C44.7949 15.5738 44.7153 15.6414 44.7027 15.6694C44.6902 15.6975 44.685 15.6543 44.6911 15.5734C44.7032 15.416 44.6363 15.3717 44.5697 15.493C44.5219 15.5801 44.5694 15.7033 44.7448 15.9468C44.9723 16.2626 45.462 16.6125 45.3332 16.3671C45.2754 16.257 45.3006 16.2665 45.5748 16.4578C45.7141 16.555 45.9559 16.6729 46.1434 16.7351C46.5029 16.8542 46.4691 16.8578 46.9801 16.6466C47.1825 16.563 47.1845 16.5629 47.1602 16.6409C47.1287 16.7421 47.1807 16.7412 47.3087 16.6386C47.437 16.5358 47.4512 16.4203 47.3273 16.4879C47.2541 16.5278 47.2478 16.5246 47.2728 16.4599C47.2884 16.4196 47.3271 16.2721 47.3589 16.132C47.4386 15.7809 47.5188 15.5592 47.587 15.5015C47.6187 15.4748 47.7086 15.4488 47.7869 15.4438C47.8652 15.4387 47.9413 15.4328 47.956 15.4305C47.9707 15.4283 48.0053 15.3779 48.0329 15.3187C48.0794 15.2189 48.3534 15.0515 48.5895 14.9786C48.6606 14.9567 48.6697 14.9654 48.6512 15.0373C48.6336 15.1061 48.6431 15.1179 48.7025 15.1006C48.9035 15.0422 50.4312 14.9179 50.9567 14.9172C51.186 14.9169 51.2291 14.9295 51.3413 15.0291C51.6582 15.3104 52.0116 15.3694 52.2785 15.1854C52.5588 14.9921 52.5827 14.9963 52.8526 15.2852C53.0617 15.5091 53.1128 15.544 53.2306 15.544C53.3056 15.544 53.3794 15.5647 53.3947 15.5899C53.4134 15.6207 53.4015 15.6275 53.3585 15.6107C53.2694 15.5759 53.278 15.6499 53.3689 15.6994C53.4959 15.7687 53.7364 15.7474 53.8493 15.6569C53.9064 15.6112 53.9445 15.5512 53.9341 15.5236C53.896 15.4223 54.2919 15.3876 54.3714 15.4852C54.4114 15.5344 54.4058 15.544 54.3376 15.544C54.2507 15.544 54.2338 15.6046 54.2939 15.7008C54.3244 15.7497 54.3439 15.7512 54.4096 15.7097C54.4683 15.6726 54.5086 15.6708 54.5669 15.7026C54.6665 15.7569 54.6514 15.9098 54.5445 15.9303C54.3618 15.9653 54.4033 16.1091 54.6484 16.29C54.8193 16.4162 54.9483 16.4409 54.9483 16.3475C54.9483 16.2764 55.0102 16.2693 55.0343 16.3377C55.0931 16.5048 54.8284 16.8861 54.4992 17.1083C54.3465 17.2114 54.2838 17.2294 54.0782 17.2294C53.7175 17.2294 53.4675 17.1613 53.2732 17.0102C53.1063 16.8804 52.954 16.8197 53.056 16.9237C53.1247 16.9936 53.1122 17.0334 53.0217 17.0334C52.973 17.0334 52.933 17.0018 52.9206 16.9534C52.8912 16.8387 52.8315 16.8744 52.6857 17.0939C52.5852 17.2453 52.5627 17.312 52.5808 17.4045C52.6123 17.5651 52.6967 17.641 52.844 17.641C53.0198 17.641 53.0328 17.7765 52.8726 17.9398C52.7567 18.0578 52.7505 18.0595 52.677 17.9917C52.6353 17.9532 52.5538 17.8454 52.4959 17.752C52.3989 17.5956 52.3336 17.5394 52.3326 17.6116C52.3322 17.6277 52.3697 17.7498 52.4155 17.8828L52.4989 18.1246L52.3967 18.2484C52.3405 18.3164 52.2874 18.4104 52.2787 18.4573C52.27 18.5041 52.2429 18.6653 52.2185 18.8154C52.1942 18.9655 52.1386 19.1728 52.095 19.2759C52.0172 19.4602 51.9484 19.5207 51.9484 19.4047C51.9484 19.3297 51.9276 19.3309 51.7909 19.4132C51.7294 19.4502 51.6792 19.5059 51.6792 19.537C51.6792 19.5681 51.761 19.6701 51.861 19.7637L52.0429 19.9339H30.7241H9.40542L9.17957 19.7143L9.17957 19.7143ZM38.6026 19.1532C38.6026 19.0544 38.653 19.0405 38.9317 19.0626C39.1128 19.0769 39.1786 19.0669 39.227 19.0175C39.3087 18.9343 39.4494 18.9373 39.7633 19.0287C39.9044 19.0699 40.0294 19.0938 40.0411 19.082C40.1062 19.0155 38.6591 17.5886 38.2464 17.3123C37.8916 17.0748 36.7251 15.8235 36.7776 15.7368C36.7878 15.7201 36.7612 15.6951 36.7186 15.6814C36.676 15.6676 36.6411 15.6225 36.6411 15.5812C36.6411 15.4782 36.4417 15.2589 36.3412 15.2513C36.2642 15.2456 36.0595 15.0127 35.9552 14.8123C35.9211 14.7467 35.9219 14.7232 35.9588 14.7098C35.9917 14.6979 35.9797 14.6626 35.92 14.5964C35.8724 14.5435 35.8335 14.47 35.8335 14.433C35.8335 14.396 35.8075 14.3555 35.7758 14.3431C35.744 14.3307 35.7181 14.2891 35.7181 14.2506C35.7181 14.2121 35.6935 14.1709 35.6634 14.1592C35.6315 14.1467 35.6167 14.1063 35.628 14.0624C35.6402 14.0147 35.6235 13.9777 35.5825 13.9616C35.5352 13.9432 35.5242 13.9095 35.5419 13.8377C35.5603 13.7629 35.5427 13.717 35.469 13.6474C35.4156 13.5969 35.3719 13.5365 35.3719 13.513C35.3719 13.4127 35.2783 13.2738 35.2032 13.2629C35.1399 13.2537 35.1193 13.2191 35.1101 13.1065C35.101 12.9941 35.0803 12.9593 35.0169 12.9498C34.9721 12.943 34.907 12.8846 34.8722 12.8199C34.8374 12.7553 34.7457 12.6716 34.6684 12.6339C34.591 12.5963 34.4994 12.5213 34.4647 12.4674C34.43 12.4134 34.3879 12.3692 34.3713 12.3692C34.324 12.3692 34.2566 12.6007 34.2566 12.7632C34.2566 12.891 34.2715 12.9156 34.3706 12.9508C34.5563 13.0168 34.5847 13.289 34.4008 13.2405C34.3155 13.2181 34.3157 13.2197 34.4152 13.352C34.534 13.51 34.6463 13.5538 34.6144 13.4297C34.5999 13.3729 34.6121 13.3491 34.6559 13.3491C34.7068 13.3491 34.7181 13.3952 34.7181 13.6025C34.7181 13.8157 34.7303 13.8625 34.795 13.8978C34.8839 13.9463 34.9004 14.0349 34.8143 14.0012C34.7329 13.9694 34.7412 14.0663 34.8362 14.2559C34.8799 14.3434 34.9059 14.4411 34.8939 14.473C34.8609 14.5607 34.9115 14.7209 34.9723 14.7209C35.0017 14.7209 35.0258 14.7569 35.0258 14.8009C35.0258 15.0116 34.678 15.4522 34.4798 15.4926C34.4224 15.5043 34.3045 15.5757 34.218 15.6512C34.037 15.8091 33.9725 15.7935 34.097 15.6219C34.2051 15.4729 34.1558 15.4713 33.9976 15.6186C33.8363 15.7688 33.8174 15.8665 33.8701 16.2774C33.9473 16.8794 34.0332 17.0757 34.2427 17.1293C34.4075 17.1714 34.4551 17.0892 34.3855 16.8826C34.2793 16.5676 34.4174 16.4934 34.5809 16.7776C34.6364 16.8741 34.7505 17.0094 34.8345 17.0782C34.9999 17.2136 35.0332 17.2887 34.9104 17.249C34.7935 17.2112 34.8182 17.286 34.9665 17.4186C35.054 17.4969 35.1605 17.547 35.2778 17.5649C35.5153 17.6012 35.8423 17.5588 35.8954 17.4848C35.9189 17.4521 35.9838 17.4253 36.0396 17.4253C36.1158 17.4253 36.1411 17.4451 36.1411 17.5045C36.1411 17.5706 36.158 17.5793 36.2433 17.5575C36.3153 17.5391 36.3588 17.5501 36.3909 17.5948C36.4579 17.6882 36.8724 17.8874 37.1496 17.9595C37.4002 18.0247 37.5149 18.0806 37.8719 18.3117C37.9882 18.387 38.1306 18.4586 38.1883 18.4708C38.3296 18.5008 38.3852 18.5785 38.3584 18.7086C38.2858 19.0617 38.2859 19.0623 38.368 19.146C38.4712 19.2512 38.6026 19.2552 38.6026 19.1532V19.1532Z" fill="#005BBB"/>
</svg>
