<svg width="160" height="160" viewBox="0 0 160 160" fill="none" xmlns="http://www.w3.org/2000/svg">
<path d="M16.4203 26.0732H37.0732C50.8038 26.0732 57.7261 26.0914 57.7261 26.1339C57.7261 26.1764 60.1876 26.1946 64.9906 26.1946H72.2552V62.7973H82.1013V26.1946H89.666C94.6672 26.1946 97.2308 26.1764 97.2308 26.1339C97.2308 26.0914 105.006 26.0732 120.435 26.0732H143.64V18H16.4203V26.0732Z" fill="white"/>
<path d="M72.2552 62.5545V121.009H82.1013V62.5545H72.2552Z" fill="white"/>
<path d="M16.7205 31.7852C16.7205 31.8277 20.4368 43.1909 24.9756 57.0368L33.2308 82.2155V121.434H42.7167V82.5858L51.5722 57.1703C56.4413 43.1969 60.4278 31.7488 60.4278 31.7427C60.4278 31.7305 58.3925 31.7184 55.9009 31.7184H51.3741L50.8938 33.157C50.6296 33.9522 47.8559 42.2622 44.728 51.6222L39.0424 68.6428L38.478 71.5261L38.1899 70.0571C37.9077 68.6063 37.8657 68.4667 32.2341 50.2625C29.1122 40.1801 26.5486 31.8823 26.5306 31.8216C26.5006 31.7245 26.2124 31.7184 21.6075 31.7184C17.9812 31.7184 16.7205 31.7366 16.7205 31.7852Z" fill="white"/>
<path d="M96.4101 68.3332C96.4221 95.8853 96.4461 105.148 96.5002 105.743C96.7704 108.742 97.2447 111.194 97.8931 112.997C98.1272 113.64 98.9257 115.206 99.376 115.904C100.162 117.131 101.405 118.521 102.402 119.292C103.465 120.123 105.386 121.137 106.869 121.659C109.714 122.667 113.281 123.176 117.946 123.237C120.713 123.274 122.184 123.213 124.22 122.976C128.278 122.509 130.776 121.823 133.063 120.56C134.348 119.85 135.02 119.346 136.035 118.345C138.466 115.941 140.051 112.335 140.67 107.807C140.988 105.446 140.964 108.699 140.982 68.576L141 31.7184H131.694L131.676 68.7581C131.658 96.0614 131.634 105.98 131.586 106.466C131.34 108.809 130.866 110.563 130.115 111.874C128.848 114.09 126.855 115.613 124.37 116.281C121.152 117.137 117.417 117.222 113.983 116.512C111.882 116.081 110.423 115.322 109.066 113.968C106.971 111.88 106.112 109.44 105.938 105.027C105.902 104.195 105.878 88.8744 105.878 67.6655V31.7184H96.3921L96.4101 68.3332Z" fill="white"/>
<path d="M44.758 127.359C43.9054 127.541 43.4071 127.838 43.0589 128.372C42.6086 129.052 42.6266 128.81 42.6266 134.546C42.6266 139.329 42.6326 139.699 42.7347 140.063C42.8848 140.598 43.0409 140.883 43.3591 141.229C43.8874 141.8 44.6979 142.036 46.0788 142.036C47.4897 142.03 48.2762 141.793 48.8045 141.223C49.1407 140.859 49.3388 140.434 49.4649 139.809C49.597 139.153 49.609 129.945 49.4769 129.319C49.2488 128.239 48.5583 127.595 47.3876 127.353C46.8052 127.237 45.3103 127.237 44.758 127.359ZM47.0034 128.336C47.4837 128.47 47.8079 128.791 47.97 129.295C48.084 129.647 48.09 129.854 48.09 134.667C48.09 139.365 48.084 139.693 47.982 140.009C47.7358 140.755 47.3036 141.029 46.3189 141.083C45.3043 141.144 44.6919 140.944 44.3677 140.446C44.0435 139.948 44.0315 139.772 44.0495 134.436C44.0675 129.92 44.0735 129.52 44.1756 129.271C44.3857 128.731 44.6799 128.451 45.1662 128.318C45.5865 128.203 46.5711 128.215 47.0034 128.336Z" fill="white"/>
<path d="M74.9568 127.347C74.2124 127.504 73.8762 127.674 73.4799 128.075C73.0537 128.506 72.8976 128.858 72.7955 129.641C72.7475 129.987 72.7355 131.644 72.7535 134.88C72.7775 140.112 72.7655 139.991 73.1677 140.749C73.594 141.563 74.3385 141.927 75.7974 142.048C76.6739 142.115 77.9227 141.921 78.4871 141.623C78.7512 141.484 79.2015 140.98 79.3636 140.646C79.7298 139.881 79.7298 139.912 79.7298 134.576C79.7298 130.94 79.7118 129.629 79.6578 129.362C79.5437 128.822 79.3156 128.385 78.9854 128.057C78.6612 127.741 78.355 127.571 77.8026 127.413C77.3163 127.274 75.5092 127.231 74.9568 127.347ZM77.1902 128.354C77.7606 128.53 78.0488 128.882 78.1929 129.556C78.2829 129.993 78.2829 139.208 78.1929 139.736C78.0188 140.743 77.3704 141.156 76.0675 141.083C75.3951 141.047 75.1249 140.98 74.8308 140.78C74.5606 140.598 74.3084 140.082 74.2364 139.554C74.1583 139.001 74.1583 130.357 74.2364 129.763C74.3385 128.979 74.6747 128.524 75.2871 128.336C75.7373 128.196 76.7159 128.202 77.1902 128.354Z" fill="white"/>
<path d="M16 127.456C16 127.492 16.5704 129.307 17.2608 131.48L18.5216 135.432V141.769H20.0225V135.529L21.3674 131.559C22.1118 129.38 22.7242 127.553 22.7362 127.504C22.7542 127.426 22.6462 127.413 22.0638 127.413H21.3794L20.4068 130.388C19.8664 132.021 19.4281 133.423 19.4281 133.496C19.4221 133.653 19.3021 133.69 19.3021 133.532C19.3021 133.423 17.573 127.65 17.4889 127.486C17.4409 127.395 17.3388 127.383 16.7205 127.383C16.2101 127.383 16 127.401 16 127.456Z" fill="white"/>
<path d="M24.5493 127.462C24.5373 127.504 24.5313 130.272 24.5433 133.611C24.5614 139.08 24.5734 139.711 24.6634 140.057C25.0417 141.466 25.9722 142.024 27.9775 142.03C29.3764 142.03 30.0608 141.848 30.6191 141.338C30.8233 141.144 31.0154 140.889 31.1295 140.652C31.4837 139.93 31.4837 139.893 31.4897 133.344V127.383H30.0548L30.0368 133.556C30.0188 140.573 30.0548 140.063 29.5084 140.579C29.1302 140.938 28.866 141.01 27.9775 141.01C27.3291 141.01 27.227 140.992 26.9208 140.853C26.5666 140.683 26.3445 140.446 26.1644 140.033C26.0623 139.815 26.0563 139.371 26.0263 133.605L25.9963 127.413L25.2878 127.395C24.7355 127.383 24.5734 127.395 24.5493 127.462Z" fill="white"/>
<path d="M34.3535 127.419C34.3295 127.444 34.3114 130.685 34.3114 134.619V141.769H35.8124L35.7824 127.413L35.0859 127.395C34.7077 127.389 34.3775 127.401 34.3535 127.419Z" fill="white"/>
<path d="M39.6068 127.456C39.5767 127.498 38.7722 129.058 37.8296 130.928L36.1126 134.315L39.6848 141.739L41.3418 141.775L37.6195 134.333L39.4086 130.904C40.3932 129.016 41.1857 127.456 41.1737 127.426C41.1317 127.347 39.6788 127.377 39.6068 127.456Z" fill="white"/>
<path d="M52.3647 127.426C52.3407 127.444 52.3227 130.685 52.3227 134.619V141.769H53.6435L53.6555 136.379L53.6735 130.995L57.9422 141.739L59.2871 141.775V127.383H57.9662V132.98C57.9662 136.154 57.9422 138.546 57.9122 138.491C57.8822 138.443 56.9216 135.966 55.7749 132.998C54.6281 130.024 53.6675 127.547 53.6375 127.486C53.5895 127.401 53.4874 127.383 52.9891 127.383C52.6649 127.383 52.3827 127.401 52.3647 127.426Z" fill="white"/>
<path d="M65.3508 128.536H67.6323V141.769H69.1332V128.536H71.4747V127.383H65.3508V128.536Z" fill="white"/>
<path d="M86.7542 139.857L86.8863 140.258C87.1565 141.053 87.6908 141.593 88.4533 141.83C88.9276 141.982 90.0683 142.085 90.6567 142.042C92.4698 141.891 93.1842 141.369 93.5505 139.918C93.6525 139.523 93.6585 139.056 93.6585 133.453V127.413H92.2176L92.1876 133.635C92.1636 139.208 92.1456 139.881 92.0615 140.076C91.9054 140.416 91.6112 140.713 91.275 140.865C90.9929 140.992 90.8668 141.01 90.2064 141.01C89.3418 141.01 89.1017 140.95 88.7535 140.628C88.4413 140.343 88.2972 140.045 88.2251 139.541C88.1891 139.293 88.1651 136.773 88.1651 133.253V127.383H86.7182L86.7542 139.857Z" fill="white"/>
<path d="M96.5103 141.769H97.9512V127.383H96.5103V141.769Z" fill="white"/>
<path d="M101.77 127.432C101.644 127.638 98.3114 134.273 98.3114 134.321C98.3114 134.352 99.1099 136.033 100.083 138.06L101.854 141.739L102.67 141.757C103.235 141.769 103.481 141.751 103.463 141.708C103.451 141.672 102.622 139.997 101.614 137.987L99.7884 134.327L101.553 130.934C102.526 129.071 103.331 127.504 103.343 127.462C103.361 127.401 103.192 127.383 102.58 127.383C102.154 127.383 101.788 127.407 101.77 127.432Z" fill="white"/>
<path d="M105.318 127.426C105.294 127.444 105.276 130.685 105.276 134.619V141.769H106.837V135.153H107.791C108.824 135.153 108.98 135.183 109.22 135.438C109.689 135.948 109.797 136.245 110.595 139.293L111.238 141.769H112.835L112.726 141.387C111.189 136.027 111.021 135.529 110.565 135.141C110.439 135.031 110.199 134.898 110.043 134.843L109.749 134.74L109.959 134.734C110.625 134.716 111.52 134.206 111.874 133.647C112.228 133.077 112.27 132.81 112.27 130.964C112.27 129.556 112.252 129.24 112.168 128.955C111.898 128.075 111.153 127.565 109.959 127.438C109.37 127.377 105.378 127.365 105.318 127.426ZM110.001 128.494C110.337 128.676 110.613 129.022 110.715 129.368C110.793 129.629 110.805 129.975 110.787 131.256C110.769 132.743 110.763 132.828 110.625 133.131C110.547 133.307 110.379 133.544 110.253 133.66C109.881 134.006 109.58 134.06 108.116 134.06H106.837V128.348L108.326 128.366C109.605 128.385 109.833 128.397 110.001 128.494Z" fill="white"/>
<path d="M116.953 127.444C116.935 127.48 116.245 130.655 115.422 134.503C114.6 138.346 113.909 141.557 113.891 141.63C113.861 141.769 113.861 141.769 114.636 141.769H115.416L115.482 141.417C115.524 141.229 115.68 140.482 115.836 139.766L116.113 138.461L117.806 138.443L119.505 138.431L119.535 138.564C119.553 138.643 119.727 139.384 119.913 140.221L120.255 141.739L121.054 141.757C121.486 141.763 121.846 141.763 121.846 141.751C121.846 141.66 118.844 127.492 118.814 127.444C118.766 127.365 117.001 127.365 116.953 127.444ZM118.688 133.526L119.487 137.581H117.818C116.509 137.581 116.155 137.563 116.173 137.502C116.185 137.465 116.539 135.748 116.953 133.696C117.872 129.186 117.836 129.344 117.86 129.417C117.872 129.447 118.244 131.298 118.688 133.526Z" fill="white"/>
<path d="M123.707 141.769H125.148V127.383H123.707V141.769Z" fill="white"/>
<path d="M128.09 141.769H129.411L129.423 136.391L129.441 131.007L133.704 141.769H135.054L135.024 127.413L133.734 127.377V132.974C133.734 136.051 133.716 138.552 133.698 138.534C133.674 138.51 132.695 136.003 131.518 132.955L129.375 127.413L128.09 127.377V141.769Z" fill="white"/>
<path d="M137.996 141.769H143.94V140.677H139.497V134.91H143.039V133.635H139.497V128.536H143.94V127.383H137.996V141.769Z" fill="white"/>
</svg>
