<svg width="160" height="160" viewBox="0 0 160 160" fill="none" xmlns="http://www.w3.org/2000/svg">
<path d="M96.3991 117.574V42.9335L11.7808 42.9334V37.412H147.101V42.9334L104.129 42.9335V117.574H96.3991Z" fill="white"/>
<path d="M96.3991 120.378V71.5032H104.17V120.378H96.3991Z" fill="white"/>
<path d="M25.8332 120.378V88.599L12.2138 47.8636H20.1891L29.5141 77.679L30.0049 80.1329L30.4957 77.679L40.5568 47.8636H47.9187L33.5631 88.9671V120.378H25.8332Z" fill="white"/>
<path d="M53.5281 120.378V47.8636H75.9817C79.9898 47.8636 83.2618 48.8452 85.7975 50.8083C88.3332 52.6897 89.6011 55.7162 89.6011 59.8879V68.7221C89.6011 71.0124 89.2739 73.0574 88.6195 74.857C87.9651 76.5747 87.0654 77.9653 85.9202 79.0287C84.775 80.1738 83.3845 80.9509 81.7485 81.3599C80.1943 81.6871 78.8856 81.8916 77.8222 81.9734V81.728C79.4581 81.728 81.0123 81.9325 82.4847 82.3415C84.0388 82.6687 85.3476 83.364 86.411 84.4273C87.638 85.5725 88.5786 87.0449 89.233 88.8444C89.9692 90.5622 90.3373 92.6071 90.3373 94.9793V105.531C90.3373 109.621 89.6829 112.729 88.3741 114.856C87.0654 116.983 85.2249 118.455 82.8528 119.273C80.5624 120.01 77.8222 120.378 74.632 120.378H53.5281ZM61.2581 115.961H73.2824C75.1637 115.961 76.7997 115.715 78.1903 115.224C79.5808 114.652 80.6442 113.588 81.3804 112.034C82.1984 110.398 82.6074 108.026 82.6074 104.918V94.9793C82.6074 91.053 81.5849 88.4763 79.5399 87.2494C77.5768 85.9406 75.1228 85.2862 72.1781 85.2862H61.2581V115.961ZM61.2581 80.1329H71.9327C75.2046 80.1329 77.6995 79.2332 79.4172 77.4336C81.2168 75.634 82.1166 73.0165 82.1166 69.581V61.2376C82.1166 58.211 81.2986 56.0025 79.6626 54.6119C78.1085 53.1396 76.1862 52.4034 73.8959 52.4034H61.2581V80.1329Z" fill="white"/>
<path d="M128.958 121.85C125.359 121.85 122.168 121.441 119.387 120.623C116.688 119.805 114.52 118.128 112.884 115.592C111.33 112.975 110.553 109.049 110.553 103.813V62.9553C110.553 58.3746 111.33 54.9391 112.884 52.6488C114.52 50.3584 116.729 48.8452 119.51 48.109C122.373 47.291 125.563 46.882 129.08 46.882C132.68 46.882 135.829 47.291 138.528 48.109C141.227 48.927 143.354 50.4811 144.908 52.7715C146.463 55.0618 147.24 58.4564 147.24 62.9553V75.7158H139.51V62.8326C139.51 59.6425 139.06 57.2704 138.16 55.7162C137.26 54.0802 135.992 53.0169 134.356 52.5261C132.802 52.0353 131.003 51.7899 128.958 51.7899C126.913 51.7899 125.072 52.0353 123.436 52.5261C121.882 53.0169 120.655 54.0802 119.755 55.7162C118.937 57.2704 118.528 59.6425 118.528 62.8326V105.899C118.528 109.171 118.937 111.625 119.755 113.261C120.655 114.815 121.882 115.838 123.436 116.329C125.072 116.819 126.913 117.065 128.958 117.065C131.084 117.065 132.925 116.819 134.479 116.329C136.033 115.838 137.26 114.815 138.16 113.261C139.06 111.625 139.51 109.171 139.51 105.899V94.9793H147.24V103.691C147.24 109.008 146.463 112.975 144.908 115.592C143.354 118.128 141.227 119.805 138.528 120.623C135.829 121.441 132.639 121.85 128.958 121.85Z" fill="white"/>
</svg>
