<svg width="160" height="160" viewBox="0 0 160 160" fill="none" xmlns="http://www.w3.org/2000/svg">
<path d="M96.3991 117.574V42.9335L11.7808 42.9334V37.412H147.101V42.9334L104.129 42.9335V117.574H96.3991Z" fill="#FFD500"/>
<path d="M96.3991 120.378V71.5032H104.17V120.378H96.3991Z" fill="#3C73B4"/>
<path d="M25.8332 120.378V88.599L12.2138 47.8635H20.1891L29.5141 77.6789L30.0049 80.1329L30.4957 77.6789L40.5569 47.8635H47.9187L33.5631 88.9671V120.378H25.8332Z" fill="#242424"/>
<path d="M53.5281 120.378V47.8635H75.9817C79.9898 47.8635 83.2618 48.8451 85.7975 50.8083C88.3333 52.6896 89.6011 55.7162 89.6011 59.8879V68.722C89.6011 71.0124 89.2739 73.0573 88.6195 74.8569C87.9652 76.5747 87.0654 77.9652 85.9202 79.0286C84.775 80.1738 83.3845 80.9509 81.7485 81.3599C80.1943 81.687 78.8856 81.8915 77.8222 81.9733V81.7279C79.4582 81.7279 81.0123 81.9324 82.4847 82.3414C84.0388 82.6686 85.3476 83.3639 86.411 84.4273C87.638 85.5725 88.5786 87.0448 89.233 88.8444C89.9692 90.5621 90.3373 92.6071 90.3373 94.9792V105.531C90.3373 109.621 89.6829 112.729 88.3741 114.856C87.0654 116.983 85.2249 118.455 82.8528 119.273C80.5624 120.009 77.8222 120.378 74.6321 120.378H53.5281ZM61.2581 115.96H73.2824C75.1638 115.96 76.7997 115.715 78.1903 115.224C79.5808 114.652 80.6442 113.588 81.3804 112.034C82.1984 110.398 82.6074 108.026 82.6074 104.918V94.9792C82.6074 91.0529 81.5849 88.4763 79.54 87.2493C77.5768 85.9405 75.1229 85.2862 72.1781 85.2862H61.2581V115.96ZM61.2581 80.1329H71.9327C75.2047 80.1329 77.6995 79.2331 79.4173 77.4335C81.2168 75.634 82.1166 73.0164 82.1166 69.5809V61.2375C82.1166 58.211 81.2986 56.0024 79.6626 54.6119C78.1085 53.1395 76.1862 52.4033 73.8959 52.4033H61.2581V80.1329Z" fill="#242424"/>
<path d="M128.958 121.85C125.359 121.85 122.168 121.441 119.387 120.623C116.688 119.805 114.52 118.128 112.884 115.592C111.33 112.975 110.553 109.049 110.553 103.813V62.9553C110.553 58.3746 111.33 54.9391 112.884 52.6487C114.52 50.3584 116.729 48.8451 119.51 48.1089C122.373 47.2909 125.563 46.882 129.08 46.882C132.68 46.882 135.829 47.2909 138.528 48.1089C141.227 48.9269 143.354 50.4811 144.908 52.7714C146.463 55.0618 147.24 58.4564 147.24 62.9553V75.7158H139.51V62.8326C139.51 59.6425 139.06 57.2703 138.16 55.7162C137.26 54.0802 135.992 53.0168 134.356 52.526C132.802 52.0352 131.003 51.7898 128.958 51.7898C126.913 51.7898 125.072 52.0352 123.436 52.526C121.882 53.0168 120.655 54.0802 119.755 55.7162C118.937 57.2703 118.528 59.6425 118.528 62.8326V105.899C118.528 109.171 118.937 111.625 119.755 113.261C120.655 114.815 121.882 115.838 123.436 116.329C125.072 116.819 126.913 117.065 128.958 117.065C131.084 117.065 132.925 116.819 134.479 116.329C136.033 115.838 137.26 114.815 138.16 113.261C139.06 111.625 139.51 109.171 139.51 105.899V94.9792H147.24V103.691C147.24 109.008 146.463 112.975 144.908 115.592C143.354 118.128 141.227 119.805 138.528 120.623C135.829 121.441 132.639 121.85 128.958 121.85Z" fill="#242424"/>
</svg>
