<svg width="160" height="160" viewBox="0 0 160 160" fill="none" xmlns="http://www.w3.org/2000/svg">
<path d="M75.16 118.565V43.5496H82.9288V118.565H75.16Z" fill="#FFD500"/>
<path d="M32 43.5491V38H128.5V43.5491H32Z" fill="#FFD500"/>
<path d="M75.16 121.383V72.2628H82.9699V121.383H75.16Z" fill="#3C73B4"/>
<path d="M109.755 122.534C107.176 122.534 104.763 122.326 102.517 121.91C100.27 121.494 98.2736 120.704 96.5264 119.539C94.8624 118.374 93.5312 116.669 92.5328 114.422C91.6176 112.093 91.16 109.014 91.16 105.187V48.88H99.0224V106.81C99.0224 109.805 99.5216 112.051 100.52 113.549C101.518 115.046 102.808 116.086 104.389 116.669C106.053 117.168 107.842 117.418 109.755 117.418C111.586 117.418 113.333 117.168 114.997 116.669C116.661 116.086 117.992 115.046 118.99 113.549C119.989 112.051 120.488 109.805 120.488 106.81V48.88H128.226V105.187C128.226 109.014 127.726 112.093 126.728 114.422C125.813 116.669 124.523 118.374 122.859 119.539C121.195 120.704 119.198 121.494 116.869 121.91C114.622 122.326 112.251 122.534 109.755 122.534Z" fill="#242424"/>
<path d="M46.9679 121.383V89.4447L33.28 48.5045H41.2954L50.6673 78.4697L51.1605 80.936L51.6538 78.4697L61.7655 48.5045H69.1643L54.7366 89.8146V121.383H46.9679Z" fill="#242424"/>
</svg>
