<svg width="36" height="36" viewBox="0 0 36 36" fill="none" xmlns="http://www.w3.org/2000/svg">
<path d="M18.27 17.025C20.7263 17.0253 22.7291 15.0559 22.77 12.6V10.92C22.7701 9.9229 22.37 8.9675 21.6593 8.26811C20.9487 7.56873 19.987 7.18391 18.99 7.19999H17.565C15.5164 7.20825 13.86 8.87134 13.86 10.92V12.6C13.8999 15.0213 15.8488 16.9769 18.27 17.025Z" fill="white"/>
<path d="M34.17 24.765L33.99 22.5C33.7954 21.3625 32.8188 20.5245 31.665 20.505H25.185C25.0856 20.4895 24.9844 20.4895 24.885 20.505C24.3101 19.8593 23.4845 19.493 22.62 19.5H13.935C13.0195 19.496 12.1522 19.9103 11.58 20.625C11.3349 20.5354 11.0759 20.4897 10.815 20.49H4.335C3.17638 20.5108 2.19812 21.3566 2.01 22.5L1.83 24.84C1.67926 25.5576 1.85247 26.3051 2.30344 26.8833C2.75442 27.4615 3.4373 27.8115 4.17 27.84H10.995C11.1296 27.8555 11.2654 27.8555 11.4 27.84C11.9949 28.4966 12.8389 28.8724 13.725 28.875H22.83C23.6891 28.8709 24.5085 28.5128 25.095 27.885H31.83C32.5893 27.864 33.2975 27.4976 33.7533 26.8899C34.209 26.2823 34.3625 25.4998 34.17 24.765Z" fill="white"/>
<path d="M28.5 18.165C30.3225 18.165 31.8 16.6875 31.8 14.865V13.59C31.8003 12.8408 31.4976 12.1234 30.9609 11.6008C30.4241 11.0781 29.6989 10.7947 28.95 10.815H27.9C26.3674 10.815 25.125 12.0574 25.125 13.59V14.865C25.1248 15.7534 25.4827 16.6043 26.1179 17.2254C26.7531 17.8464 27.6119 18.1852 28.5 18.165V18.165Z" fill="white"/>
<path d="M7.57499 18.165C9.39753 18.165 10.875 16.6875 10.875 14.865V13.59C10.875 12.0574 9.63258 10.815 8.09999 10.815H7.04999C5.5174 10.815 4.27499 12.0574 4.27499 13.59V14.865C4.27499 16.6875 5.75245 18.165 7.57499 18.165V18.165Z" fill="white"/>
</svg>
