<svg width="36" height="36" viewBox="0 0 36 36" fill="none" xmlns="http://www.w3.org/2000/svg">
<path fill-rule="evenodd" clip-rule="evenodd" d="M14.625 9.63C15.2429 9.62192 15.7419 9.12294 15.75 8.505V4.125C15.75 3.50368 15.2463 3 14.625 3C14.0037 3 13.5 3.50368 13.5 4.125V8.505C13.5 9.12632 14.0037 9.63 14.625 9.63ZM6.70257 6.64257C7.13099 6.21415 7.82174 6.20196 8.265 6.615L11.415 9.705C11.6294 9.91393 11.7504 10.2006 11.7504 10.5C11.7504 10.7994 11.6294 11.0861 11.415 11.295C11.2062 11.5089 10.9189 11.6281 10.62 11.625C10.3008 11.6433 9.98917 11.523 9.765 11.295L6.675 8.205C6.26197 7.76174 6.27415 7.07099 6.70257 6.64257ZM16.995 13.74L30.72 18.09C31.6923 18.3821 32.4029 19.2172 32.5355 20.2237C32.6682 21.2302 32.1983 22.2209 31.335 22.755L26.535 25.755C26.2252 25.9599 25.9599 26.2252 25.755 26.535L22.755 31.335C22.2058 32.1777 21.217 32.6244 20.2217 32.4794C19.2264 32.3345 18.406 31.6243 18.12 30.66L13.815 16.92C13.5188 16.0171 13.7556 15.0244 14.4275 14.3525C15.0994 13.6806 16.0921 13.4438 16.995 13.74ZM19.62 9.24C19.402 9.44926 19.1122 9.56731 18.81 9.57C18.5037 9.55078 18.2177 9.41046 18.015 9.18C17.8006 8.97107 17.6796 8.68438 17.6796 8.385C17.6796 8.08562 17.8006 7.79893 18.015 7.59L21.12 4.59C21.3161 4.36789 21.5929 4.23341 21.8887 4.21651C22.1846 4.19961 22.4749 4.30168 22.695 4.5C23.1337 4.93923 23.1337 5.65077 22.695 6.09L19.62 9.24ZM7.71 17.955L4.62 21.09C4.23105 21.5144 4.23105 22.1656 4.62 22.59C4.83077 22.801 5.11673 22.9197 5.415 22.92C5.71199 22.9135 5.99573 22.7958 6.21 22.59L9.3 19.59C9.73868 19.1508 9.73868 18.4392 9.3 18C9.0972 17.7796 8.81392 17.6504 8.5145 17.642C8.21508 17.6335 7.92494 17.7464 7.71 17.955ZM4.125 13.5H8.505C9.12632 13.5 9.63 14.0037 9.63 14.625C9.63 15.2463 9.12632 15.75 8.505 15.75H4.125C3.50368 15.75 3 15.2463 3 14.625C3 14.0037 3.50368 13.5 4.125 13.5Z" fill="white"/>
</svg>
