<svg width="24" height="18" viewBox="0 0 24 18" fill="none" xmlns="http://www.w3.org/2000/svg">
<g clip-path="url(#clip0_10_27)">
<path fill-rule="evenodd" clip-rule="evenodd" d="M0 0H34.2V1.38518H0V0ZM0 2.77031H34.2V4.15549H0V2.77031ZM0 5.5371H34.2V6.92576H0V5.5371ZM0 8.30741H34.2V9.69259H0V8.30741ZM0 11.0777H34.2V12.4629H0V11.0777ZM0 13.8445H34.2V15.2297H0V13.8445ZM0 16.6148H34.2V18H0V16.6148Z" fill="#BD3D44"/>
<path fill-rule="evenodd" clip-rule="evenodd" d="M0 1.38513H34.2V2.77027H0V1.38513ZM0 4.15541H34.2V5.53706H0V4.15541ZM0 6.92223H34.2V8.30737H0V6.92223ZM0 9.69254H34.2V11.0777H0V9.69254ZM0 12.4629H34.2V13.848H0V12.4629ZM0 15.2296H34.2V16.6148H0V15.2296Z" fill="white"/>
<path fill-rule="evenodd" clip-rule="evenodd" d="M0 0H13.6793V9.69259H0V0Z" fill="#192F5D"/>
<path fill-rule="evenodd" clip-rule="evenodd" d="M1.13905 0.414917L1.26561 0.798055H1.66641L1.34294 1.03363L1.46601 1.42033L1.13905 1.18127L0.815612 1.4168L0.93865 1.03363L0.611725 0.798055H1.01954L1.13905 0.414917ZM3.4207 0.414917L3.54374 0.798055H3.94803L3.62106 1.03363L3.74414 1.42033L3.4207 1.18127L3.09374 1.4168L3.21678 1.03363L2.89334 0.798055H3.29414L3.4207 0.414917ZM5.69882 0.414917L5.82539 0.798092H6.22266L5.89923 1.03367L6.02223 1.42037L5.6953 1.1813L5.37186 1.41684L5.4949 1.03367L5.16794 0.798092H5.57226L5.69882 0.414917ZM7.98048 0.414917L8.10348 0.798092H8.5078L8.18084 1.03367L8.3074 1.42037L7.98044 1.1813L7.65351 1.41684L7.78007 1.03367L7.45311 0.798092H7.85391L7.98048 0.414917ZM10.2586 0.414917L10.3852 0.798092H10.7859L10.4625 1.03367L10.5855 1.42037L10.2586 1.1813L9.93513 1.41684L10.0582 1.03367L9.73476 0.798092H10.1355L10.2586 0.414917ZM12.5402 0.414917L12.6633 0.798092H13.0676L12.7406 1.03367L12.8672 1.42037L12.5402 1.1813L12.2133 1.41684L12.3398 1.03367L12.0129 0.798092H12.4172L12.5402 0.414917ZM2.28164 1.38515L2.40467 1.7684H2.80896L2.482 2.0039L2.60155 2.38715L2.28512 2.15158L1.9582 2.38712L2.07419 2.00394L1.7578 1.76837H2.1586L2.28164 1.38515ZM4.55976 1.38515L4.68633 1.7684H5.08709L4.76012 2.0039L4.88673 2.38715L4.55972 2.15158L4.2328 2.38712L4.35936 2.00394L4.0324 1.76837H4.43669L4.55976 1.38515ZM6.84141 1.38515L6.96441 1.7684H7.36874L7.04178 2.0039L7.16481 2.38715L6.84137 2.15158L6.51445 2.38712L6.63749 2.00398L6.31405 1.7684H6.71485L6.84141 1.38515ZM9.11954 1.38515L9.2461 1.7684H9.64686L9.3199 2.0039L9.44646 2.38715L9.1195 2.15158L8.79606 2.38712L8.91914 2.00394L8.59218 1.76837H8.99999L9.11954 1.38515ZM11.4012 1.38515L11.5242 1.7684H11.9285L11.6016 2.0039L11.7246 2.38715L11.4012 2.15158L11.0742 2.38712L11.1973 2.00394L10.8738 1.76837H11.2746L11.4012 1.38515ZM1.13905 2.35205L1.26561 2.74228H1.66641L1.34294 2.97782L1.46601 3.36103L1.13905 3.12197L0.815612 3.36103L0.93865 2.97429L0.611725 2.73879H1.01954L1.13905 2.35205ZM3.4207 2.35205L3.54374 2.73868H3.94803L3.62106 2.97422L3.74414 3.35747L3.4207 3.11837L3.09374 3.35743L3.21678 2.97073L2.89334 2.73519H3.29414L3.4207 2.35205ZM5.69882 2.35205L5.82539 2.73875H6.22266L5.89923 2.97429L6.02223 3.35754L5.6953 3.11844L5.37186 3.3575L5.4949 2.9708L5.16794 2.73527H5.57226L5.69882 2.35205ZM7.98048 2.35205L8.10348 2.73875H8.5078L8.18084 2.97429L8.3074 3.35754L7.98044 3.11844L7.65351 3.3575L7.78007 2.9708L7.45311 2.73527H7.85391L7.98048 2.35205ZM10.2586 2.35205L10.3852 2.73875H10.7859L10.4625 2.97425L10.5855 3.3575L10.2586 3.1184L9.93513 3.35747L10.0582 2.97077L9.73476 2.73523H10.1355L10.2586 2.35205ZM12.5402 2.35205L12.6633 2.73875H13.0676L12.7406 2.97429L12.8672 3.35754L12.5402 3.11844L12.2133 3.3575L12.3398 2.9708L12.0129 2.73527H12.4172L12.5402 2.35205ZM2.28164 3.32233L2.40467 3.70554H2.80896L2.482 3.94104L2.60508 4.32778L2.28164 4.08872L1.95467 4.32425L2.07771 3.94108L1.75427 3.70554H2.15511L2.28164 3.32233ZM4.55976 3.32233L4.68633 3.70554H5.08709L4.76012 3.94104L4.88673 4.32778L4.55972 4.08872L4.2328 4.32425L4.35936 3.94108L4.0324 3.70554H4.43669L4.55976 3.32233ZM6.84141 3.32233L6.96441 3.70554H7.36874L7.04178 3.94104L7.16481 4.32778L6.84137 4.08872L6.51445 4.32425L6.63749 3.94108L6.31405 3.70554H6.71485L6.84141 3.32233ZM9.11954 3.32233L9.2461 3.70554H9.64686L9.32343 3.94104L9.44646 4.32778L9.1195 4.08872L8.79606 4.32425L8.91914 3.94108L8.59218 3.70554H8.99999L9.11954 3.32233ZM11.4012 3.32233L11.5242 3.70554H11.9285L11.6016 3.94104L11.7246 4.32778L11.4012 4.08872L11.0742 4.32425L11.1973 3.94108L10.8738 3.70554H11.2746L11.4012 3.32233ZM1.13905 4.29264L1.26561 4.67585H1.66641L1.34294 4.91135L1.46601 5.29809L1.13905 5.05903L0.815612 5.29457L0.93865 4.91139L0.611725 4.67585H1.01954L1.13905 4.29264ZM3.4207 4.29264L3.54374 4.67585H3.94803L3.62106 4.91135L3.74414 5.2946L3.4207 5.05903L3.09374 5.29457L3.21678 4.91139L2.89334 4.67585H3.29414L3.4207 4.29264ZM5.69882 4.29264L5.82539 4.67585H6.22266L5.89923 4.91135L6.02223 5.29809L5.6953 5.05903L5.37186 5.29457L5.4949 4.91139L5.16794 4.67585H5.57226L5.69882 4.29264ZM7.98048 4.29264L8.10348 4.67585H8.5078L8.18084 4.91135L8.3074 5.29809L7.98044 5.05903L7.65351 5.29457L7.78007 4.91139L7.45311 4.67585H7.85391L7.98048 4.29264ZM10.2586 4.29264L10.3852 4.67585H10.7859L10.4625 4.91135L10.5855 5.29809L10.2586 5.05903L9.93513 5.29457L10.0582 4.91139L9.73476 4.67585H10.1355L10.2586 4.29264ZM12.5402 4.29264L12.6633 4.67585H13.0676L12.7406 4.91135L12.8672 5.29809L12.5402 5.05903L12.2133 5.29457L12.3398 4.91139L12.0129 4.67585H12.4172L12.5402 4.29264ZM2.28164 5.26295L2.40467 5.64617H2.80896L2.482 5.88167L2.60508 6.26492L2.28164 6.02585L1.95467 6.26492L2.07771 5.87818L1.75427 5.64264H2.15511L2.28164 5.26295ZM4.55976 5.26295L4.68633 5.64617H5.08709L4.76012 5.88167L4.88673 6.26492L4.55972 6.02585L4.2328 6.26492L4.35936 5.87818L4.0324 5.64264H4.43669L4.55976 5.26295ZM6.84141 5.26295L6.96441 5.64617H7.36874L7.04178 5.88167L7.16481 6.26492L6.84137 6.02585L6.51445 6.26492L6.63749 5.87818L6.31405 5.64264H6.71485L6.84141 5.26295ZM9.11954 5.26295L9.2461 5.64617H9.64686L9.32343 5.88167L9.44646 6.26492L9.1195 6.02585L8.79606 6.26492L8.91914 5.87818L8.59218 5.64264H8.99999L9.11954 5.26295ZM11.4012 5.26295L11.5242 5.64617H11.9285L11.6016 5.88167L11.7246 6.26492L11.4012 6.02585L11.0742 6.26492L11.1973 5.87818L10.8738 5.64264H11.2746L11.4012 5.26295ZM1.13905 6.22974L1.26561 6.61648H1.66641L1.34294 6.85198L1.46601 7.2317L1.13905 6.99617L0.815612 7.23167L0.93865 6.84849L0.611725 6.61295H1.01954L1.13905 6.22974ZM3.4207 6.22974L3.54374 6.61648H3.94803L3.62106 6.85198L3.74766 7.2317L3.42066 6.99617L3.09374 7.23167L3.2203 6.84849L2.89334 6.61295H3.29414L3.4207 6.22974ZM5.69882 6.22974L5.82539 6.61648H6.22266L5.89923 6.85198L6.02223 7.2317L5.6953 6.99617L5.37186 7.23167L5.4949 6.84849L5.16794 6.61295H5.57226L5.69882 6.22974ZM7.98048 6.22974L8.10348 6.61648H8.5078L8.18084 6.85198L8.3074 7.2317L7.98044 6.99617L7.65351 7.23167L7.78007 6.84849L7.45311 6.61295H7.85391L7.98048 6.22974ZM10.2586 6.22974L10.3852 6.61648H10.7859L10.4625 6.85198L10.5855 7.2317L10.2586 6.99617L9.93513 7.23167L10.0582 6.84849L9.73476 6.61295H10.1355L10.2586 6.22974ZM12.5402 6.22974L12.6633 6.61648H13.0676L12.7406 6.85198L12.8672 7.2317L12.5402 6.99617L12.2133 7.23167L12.3398 6.84849L12.0129 6.61295H12.4172L12.5402 6.22974ZM2.28164 7.20005L2.40467 7.58327H2.80896L2.482 7.8188L2.60508 8.20554L2.28164 7.96648L1.95467 8.20198L2.07771 7.8188L1.75427 7.58327H2.15511L2.28164 7.20005ZM4.55976 7.20005L4.68633 7.58327H5.08709L4.76012 7.8188L4.88673 8.20554L4.55972 7.96648L4.2328 8.20198L4.35936 7.8188L4.0324 7.58327H4.43669L4.55976 7.20005ZM6.84141 7.20005L6.96441 7.58327H7.36874L7.04178 7.8188L7.16481 8.20554L6.84137 7.96648L6.51445 8.20198L6.63749 7.8188L6.31405 7.58327H6.71485L6.84141 7.20005ZM9.11954 7.20005L9.2461 7.58327H9.64686L9.32343 7.8188L9.44646 8.20554L9.1195 7.96648L8.79606 8.20198L8.91914 7.8188L8.59218 7.58327H8.99999L9.11954 7.20005ZM11.4012 7.20005L11.5242 7.58327H11.9285L11.6016 7.8188L11.7246 8.20554L11.4012 7.96648L11.0742 8.20198L11.1973 7.8188L10.8738 7.58327H11.2746L11.4012 7.20005ZM1.13905 8.17037L1.26561 8.55358H1.66641L1.34294 8.78912L1.46601 9.17233L1.13905 8.93679L0.815612 9.17229L0.93865 8.78559L0.611725 8.55005H1.01954L1.13905 8.17037ZM3.4207 8.17037L3.54374 8.55358H3.94803L3.62106 8.78912L3.74766 9.17233L3.42066 8.93679L3.09374 9.17229L3.2203 8.78559L2.89334 8.55005H3.29414L3.4207 8.17037ZM5.69882 8.17037L5.82539 8.55358H6.22266L5.90624 8.78912L6.02928 9.17233L5.70231 8.93679L5.37887 9.17229L5.50195 8.78559L5.17499 8.55005H5.57928L5.69882 8.17037ZM7.98048 8.17037L8.10348 8.55358H8.5078L8.18084 8.78912L8.3074 9.17233L7.98044 8.93679L7.65351 9.17229L7.78007 8.78559L7.45311 8.55005H7.85391L7.98048 8.17037ZM10.2586 8.17037L10.3852 8.55358H10.7859L10.4625 8.78912L10.5855 9.17233L10.2586 8.93679L9.93513 9.17229L10.0582 8.78559L9.73476 8.55005H10.1355L10.2586 8.17037ZM12.5402 8.17037L12.6633 8.55358H13.0676L12.7406 8.78912L12.8672 9.17233L12.5402 8.93679L12.2133 9.17229L12.3398 8.78559L12.0129 8.55005H12.4172L12.5402 8.17037Z" fill="white"/>
</g>
<defs>
<clipPath id="clip0_10_27">
<rect width="24" height="18" fill="white"/>
</clipPath>
</defs>
</svg>
