<svg width="36" height="36" viewBox="0 0 36 36" fill="none" xmlns="http://www.w3.org/2000/svg">
<path fill-rule="evenodd" clip-rule="evenodd" d="M4.17157 4.17157C3 5.34315 3 7.22876 3 11V25C3 28.7712 3 30.6569 4.17157 31.8284C5.34315 33 7.22876 33 11 33H25C28.7712 33 30.6569 33 31.8284 31.8284C33 30.6569 33 28.7712 33 25V11C33 7.74977 33 5.90014 32.25 4.70111V25.5C31.6668 25.5 31.3752 25.5 31.0964 25.4605C30.4271 25.3658 29.7928 25.1031 29.2527 24.6968C29.0276 24.5276 28.8214 24.3214 28.4091 23.9091L28.409 23.909L26.8284 22.3284C25.4951 20.9951 24.8284 20.3284 24 20.3284C23.1716 20.3284 22.5049 20.9951 21.1716 22.3284L20.0888 23.4112L20.0888 23.4112C19.1424 24.3576 18.6692 24.8308 18.1482 24.7304C17.6272 24.6301 17.3636 24.015 16.8363 22.7848L15.8273 20.4304C14.7729 17.97 14.2456 16.7398 13.2036 16.5391C12.1615 16.3385 11.2151 17.2849 9.32232 19.1777L5.25 23.25V3.47507C4.82861 3.64184 4.47599 3.86716 4.17157 4.17157Z" fill="white"/>
<path d="M11 4H25C26.9139 4 28.2487 4.00212 29.2558 4.13753C30.2342 4.26907 30.7523 4.50966 31.1213 4.87868C31.4903 5.2477 31.7309 5.76579 31.8625 6.74416C31.9979 7.75129 32 9.08611 32 11V25C32 26.9139 31.9979 28.2487 31.8625 29.2558C31.7309 30.2342 31.4903 30.7523 31.1213 31.1213C30.7523 31.4903 30.2342 31.7309 29.2558 31.8625C28.2487 31.9979 26.9139 32 25 32H11C9.08611 32 7.75129 31.9979 6.74416 31.8625C5.76579 31.7309 5.2477 31.4903 4.87868 31.1213C4.50966 30.7523 4.26907 30.2342 4.13753 29.2558C4.00212 28.2487 4 26.9139 4 25V11C4 9.08611 4.00212 7.75129 4.13753 6.74416C4.26907 5.76579 4.50966 5.2477 4.87868 4.87868C5.2477 4.50966 5.76579 4.26907 6.74416 4.13753C7.75129 4.00212 9.08611 4 11 4Z" stroke="white" stroke-width="2"/>
<circle cx="22.5" cy="13.5" r="3" fill="white"/>
</svg>
