<svg width="60" height="16" viewBox="0 0 60 16" fill="none" xmlns="http://www.w3.org/2000/svg">
<path d="M22.4451 3.95636H19.1292C18.9023 3.95636 18.7093 4.12121 18.6739 4.34521L17.3328 12.848C17.3062 13.0158 17.4361 13.167 17.6063 13.167H19.1893C19.4162 13.167 19.6092 13.0022 19.6446 12.7777L20.0063 10.4844C20.0412 10.2599 20.2346 10.095 20.4611 10.095H21.5108C23.695 10.095 24.9556 9.03806 25.2848 6.94351C25.4332 6.02715 25.2911 5.30715 24.862 4.80291C24.3908 4.24921 23.5549 3.95636 22.4451 3.95636ZM22.8276 7.06181C22.6463 8.25163 21.7372 8.25163 20.8582 8.25163H20.3578L20.7088 6.02957C20.7297 5.89527 20.846 5.79636 20.9818 5.79636H21.2111C21.8099 5.79636 22.3748 5.79636 22.6666 6.13769C22.8407 6.34133 22.894 6.64387 22.8276 7.06181Z" fill="#253B80"/>
<path d="M32.3568 7.02351H30.769C30.6337 7.02351 30.5168 7.12242 30.496 7.25672L30.4257 7.70084L30.3147 7.53987C29.9709 7.04096 29.2044 6.87418 28.4393 6.87418C26.6846 6.87418 25.1859 8.20315 24.8941 10.0674C24.7423 10.9973 24.9581 11.8865 25.4856 12.5067C25.9695 13.0768 26.6618 13.3144 27.4856 13.3144C28.8994 13.3144 29.6834 12.4053 29.6834 12.4053L29.6126 12.8465C29.5859 13.0153 29.7159 13.1665 29.8851 13.1665H31.3154C31.5428 13.1665 31.7348 13.0017 31.7707 12.7772L32.6288 7.34254C32.656 7.17527 32.5265 7.02351 32.3568 7.02351ZM30.1435 10.1139C29.9903 11.0211 29.2703 11.6301 28.352 11.6301C27.8909 11.6301 27.5224 11.4822 27.2858 11.2019C27.0511 10.9236 26.9619 10.5275 27.0366 10.0863C27.1796 9.1869 27.9118 8.55805 28.816 8.55805C29.2669 8.55805 29.6335 8.70787 29.8749 8.99054C30.1168 9.27611 30.2128 9.67466 30.1435 10.1139Z" fill="#253B80"/>
<path d="M40.8135 7.02351H39.2179C39.0656 7.02351 38.9226 7.09915 38.8363 7.2257L36.6356 10.4674L35.7027 7.35224C35.6441 7.15733 35.4642 7.02351 35.2606 7.02351H33.6926C33.502 7.02351 33.3696 7.2097 33.4303 7.38909L35.1878 12.5469L33.5355 14.8795C33.4055 15.0633 33.5364 15.3159 33.7609 15.3159H35.3546C35.5059 15.3159 35.6475 15.2422 35.7333 15.1181L41.0404 7.45745C41.1675 7.27418 41.037 7.02351 40.8135 7.02351Z" fill="#253B80"/>
<path d="M46.0964 3.95636H42.7801C42.5537 3.95636 42.3607 4.12121 42.3253 4.34521L40.9842 12.848C40.9575 13.0158 41.0875 13.167 41.2567 13.167H42.9585C43.1166 13.167 43.2518 13.0516 43.2766 12.8945L43.6572 10.4844C43.6921 10.2599 43.8855 10.095 44.112 10.095H45.1612C47.3459 10.095 48.606 9.03806 48.9357 6.94351C49.0846 6.02715 48.9415 5.30715 48.5124 4.80291C48.0416 4.24921 47.2063 3.95636 46.0964 3.95636ZM46.479 7.06181C46.2981 8.25163 45.389 8.25163 44.5095 8.25163H44.0097L44.3612 6.02957C44.382 5.89527 44.4974 5.79636 44.6336 5.79636H44.863C45.4613 5.79636 46.0266 5.79636 46.3185 6.13769C46.4926 6.34133 46.5454 6.64387 46.479 7.06181Z" fill="#179BD7"/>
<path d="M56.0077 7.02351H54.4208C54.2846 7.02351 54.1687 7.12242 54.1483 7.25672L54.078 7.70084L53.9665 7.53987C53.6228 7.04096 52.8567 6.87418 52.0916 6.87418C50.3369 6.87418 48.8388 8.20315 48.5469 10.0674C48.3956 10.9973 48.6104 11.8865 49.1379 12.5067C49.6228 13.0768 50.3142 13.3144 51.1379 13.3144C52.5517 13.3144 53.3357 12.4053 53.3357 12.4053L53.2649 12.8465C53.2383 13.0153 53.3682 13.1665 53.5384 13.1665H54.9682C55.1946 13.1665 55.3876 13.0017 55.423 12.7772L56.2817 7.34254C56.3078 7.17527 56.1779 7.02351 56.0077 7.02351ZM53.7944 10.1139C53.6422 11.0211 52.9212 11.6301 52.0029 11.6301C51.5428 11.6301 51.1733 11.4822 50.9367 11.2019C50.702 10.9236 50.6138 10.5275 50.6875 10.0863C50.8315 9.1869 51.5626 8.55805 52.4669 8.55805C52.9178 8.55805 53.2843 8.70787 53.5258 8.99054C53.7687 9.27611 53.8647 9.67466 53.7944 10.1139Z" fill="#179BD7"/>
<path d="M57.8797 4.18958L56.5187 12.848C56.4921 13.0158 56.622 13.167 56.7912 13.167H58.1595C58.3869 13.167 58.5798 13.0022 58.6147 12.7777L59.9568 4.27539C59.9835 4.10764 59.8535 3.95588 59.6843 3.95588H58.1522C58.0169 3.95636 57.9006 4.05527 57.8797 4.18958Z" fill="#179BD7"/>
<path d="M3.56262 14.8194L3.8162 13.2087L3.25135 13.1956H0.554138L2.42856 1.31054C2.43438 1.27466 2.45329 1.24121 2.48093 1.21745C2.50856 1.19369 2.54396 1.1806 2.5808 1.1806H7.12868C8.6385 1.1806 9.68044 1.49478 10.2244 2.11491C10.4795 2.40582 10.6419 2.70982 10.7204 3.04436C10.8029 3.39539 10.8043 3.81478 10.7238 4.3263L10.718 4.36363V4.69139L10.973 4.83588C11.1878 4.94981 11.3585 5.08024 11.4894 5.22957C11.7076 5.4783 11.8487 5.79442 11.9083 6.16921C11.9699 6.55466 11.9495 7.01333 11.8487 7.5326C11.7323 8.12994 11.5442 8.65018 11.2901 9.07588C11.0564 9.46812 10.7587 9.79345 10.4053 10.0456C10.0678 10.2851 9.66686 10.4669 9.21353 10.5833C8.77426 10.6977 8.27341 10.7554 7.72408 10.7554H7.37014C7.11705 10.7554 6.87123 10.8465 6.67826 11.0099C6.48481 11.1767 6.3568 11.4046 6.31753 11.6538L6.29086 11.7988L5.84287 14.6376L5.8225 14.7418C5.81717 14.7748 5.80796 14.7913 5.79438 14.8024C5.78226 14.8126 5.7648 14.8194 5.74784 14.8194H3.56262Z" fill="#253B80"/>
<path d="M11.2145 4.40146C11.201 4.48825 11.1855 4.57697 11.168 4.66813C10.5682 7.7474 8.51636 8.81115 5.89576 8.81115H4.56145C4.24097 8.81115 3.97091 9.04388 3.92097 9.36L3.23782 13.6926L3.04436 14.9207C3.01188 15.1282 3.17188 15.3154 3.38133 15.3154H5.74788C6.02812 15.3154 6.26618 15.1118 6.3103 14.8354L6.33358 14.7152L6.77915 11.8875L6.80776 11.7324C6.85139 11.455 7.08994 11.2514 7.37018 11.2514H7.72412C10.017 11.2514 11.8119 10.3205 12.3365 7.62667C12.5556 6.50134 12.4422 5.5617 11.8623 4.90085C11.6868 4.70158 11.4691 4.53625 11.2145 4.40146Z" fill="#179BD7"/>
<path d="M10.5871 4.15128C10.4955 4.12461 10.401 4.10037 10.304 4.07855C10.2065 4.05722 10.1067 4.03831 10.0039 4.02182C9.64411 3.96364 9.24993 3.936 8.82763 3.936H5.26302C5.17526 3.936 5.09187 3.95588 5.0172 3.99176C4.85284 4.07079 4.73066 4.22643 4.70108 4.41697L3.94278 9.21988L3.92096 9.36C3.9709 9.04388 4.24096 8.81116 4.56144 8.81116H5.89575C8.51635 8.81116 10.5682 7.74691 11.168 4.66813C11.1859 4.57697 11.201 4.48825 11.2145 4.40146C11.0628 4.32097 10.8984 4.25213 10.7214 4.19346C10.6778 4.17891 10.6327 4.16485 10.5871 4.15128Z" fill="#222D65"/>
<path d="M4.70106 4.41697C4.73064 4.22642 4.85282 4.07079 5.01718 3.99224C5.09233 3.95636 5.17524 3.93648 5.263 3.93648H8.82761C9.24991 3.93648 9.64409 3.96412 10.0038 4.0223C10.1066 4.03879 10.2065 4.0577 10.304 4.07903C10.4009 4.10085 10.4955 4.12509 10.5871 4.15176C10.6327 4.16533 10.6778 4.17939 10.7219 4.19345C10.8989 4.25212 11.0632 4.32145 11.215 4.40145C11.3934 3.26351 11.2135 2.48873 10.5983 1.78715C9.91997 1.01479 8.69573 0.68412 7.12918 0.68412H2.5813C2.2613 0.68412 1.98833 0.916847 1.93888 1.23345L0.044577 13.2407C0.00724362 13.4783 0.190516 13.6926 0.430031 13.6926H3.23779L3.94276 9.21988L4.70106 4.41697Z" fill="#253B80"/>
</svg>
