<svg width="36" height="36" viewBox="0 0 36 36" fill="none" xmlns="http://www.w3.org/2000/svg">
<path d="M32.3144 10.4919C32.3364 10.8173 32.3364 11.1428 32.3364 11.4713C32.3364 21.4802 24.9068 33.0235 11.3214 33.0235V33.0175C7.30823 33.0235 3.37843 31.8445 0 29.6217C0.583547 29.6937 1.17002 29.7297 1.75795 29.7312C5.08373 29.7342 8.31444 28.5897 10.9309 26.4824C7.77038 26.4209 4.9989 24.3075 4.03071 21.2222C5.13784 21.4412 6.27861 21.3962 7.36527 21.0917C3.91956 20.3777 1.44059 17.2729 1.44059 13.6672C1.44059 13.6342 1.44059 13.6027 1.44059 13.5712C2.46728 14.1576 3.61682 14.4831 4.79269 14.5191C1.54735 12.2948 0.546984 7.86703 2.50676 4.40525C6.25667 9.13745 11.7894 12.0143 17.7287 12.3188C17.1335 9.68792 17.9466 6.93109 19.8654 5.0817C22.8402 2.21388 27.5188 2.36087 30.3152 5.41018C31.9693 5.0757 33.5547 4.45324 35.0055 3.5713C34.4541 5.32469 33.3002 6.8141 31.7587 7.76054C33.2227 7.58355 34.653 7.18157 36 6.56811C35.0084 8.09202 33.7594 9.41943 32.3144 10.4919Z" fill="#1D9BF0"/>
</svg>
